<svg width="29" height="30" viewBox="0 0 29 30" fill="none" xmlns="http://www.w3.org/2000/svg">
<path d="M13.375 1.6665C13.375 1.11422 13.8227 0.666504 14.375 0.666504C22.291 0.666504 28.7083 7.08376 28.7083 14.9998C28.7083 22.9159 22.291 29.3332 14.375 29.3332C6.45888 29.3332 0.041626 22.9159 0.041626 14.9998C0.041626 10.9904 1.68915 7.36405 4.34158 4.76383C4.73597 4.3772 5.3691 4.3835 5.75572 4.77788C6.14235 5.17227 6.13606 5.8054 5.74167 6.19203C3.45714 8.43159 2.04163 11.5495 2.04163 14.9998C2.04163 21.8113 7.56345 27.3332 14.375 27.3332C21.1865 27.3332 26.7083 21.8113 26.7083 14.9998C26.7083 8.18832 21.1865 2.6665 14.375 2.6665C13.8227 2.6665 13.375 2.21879 13.375 1.6665Z" fill="#999999"/>
<path d="M13.375 5.6665C13.375 5.11422 13.8227 4.6665 14.375 4.6665C20.0819 4.6665 24.7083 9.29289 24.7083 14.9998C24.7083 20.7068 20.0819 25.3332 14.375 25.3332C8.66802 25.3332 4.04163 20.7068 4.04163 14.9998C4.04163 14.4476 4.48934 13.9998 5.04163 13.9998C5.59391 13.9998 6.04163 14.4476 6.04163 14.9998C6.04163 19.6022 9.77259 23.3332 14.375 23.3332C18.9773 23.3332 22.7083 19.6022 22.7083 14.9998C22.7083 10.3975 18.9773 6.6665 14.375 6.6665C13.8227 6.6665 13.375 6.21879 13.375 5.6665Z" fill="#999999"/>
<path d="M14.375 8.6665C13.8227 8.6665 13.375 9.11422 13.375 9.6665C13.375 10.2188 13.8227 10.6665 14.375 10.6665C16.7682 10.6665 18.7083 12.6066 18.7083 14.9998C18.7083 17.3931 16.7682 19.3332 14.375 19.3332C13.8227 19.3332 13.375 19.7809 13.375 20.3332C13.375 20.8855 13.8227 21.3332 14.375 21.3332C17.8728 21.3332 20.7083 18.4976 20.7083 14.9998C20.7083 11.502 17.8728 8.6665 14.375 8.6665Z" fill="#999999"/>
</svg>
