<svg width="24" height="25" viewBox="0 0 24 25" fill="none" xmlns="http://www.w3.org/2000/svg">
<path d="M19.7276 13.3181C19.6271 12.9163 19.2199 12.672 18.8181 12.7724L14.8181 13.7724C14.4163 13.8729 14.1719 14.2801 14.2724 14.6819C14.3729 15.0838 14.7801 15.3281 15.1819 15.2276L19.1819 14.2276C19.5837 14.1272 19.8281 13.72 19.7276 13.3181Z" fill="black"/>
<path d="M19.75 6.00004C19.75 5.58582 19.4142 5.25004 19 5.25004C18.5858 5.25004 18.25 5.58582 18.25 6.00004V9.43863L17.5007 9.08269L17.4919 9.07825C17.4429 9.05319 17.2363 8.9476 17 8.9476C16.7637 8.9476 16.5571 9.05319 16.5081 9.07825L16.4993 9.08269L15.75 9.43863V7.45006C15.75 7.03584 15.4142 6.70006 15 6.70006C14.5858 6.70006 14.25 7.03584 14.25 7.45006L14.25 10.0372C14.2498 10.1485 14.2496 10.307 14.2709 10.4431C14.2969 10.6096 14.3824 10.9308 14.7151 11.1261C15.0355 11.3143 15.3488 11.2444 15.4978 11.1981C15.6276 11.1577 15.77 11.0899 15.8762 11.0393L17 10.5055L18.1238 11.0393C18.23 11.0899 18.3724 11.1577 18.5022 11.1981C18.6512 11.2444 18.9645 11.3143 19.2849 11.1261C19.6176 10.9308 19.7031 10.6096 19.7291 10.4431C19.7504 10.307 19.7502 10.1485 19.75 10.0372L19.75 6.00004Z" fill="black"/>
<path d="M4.27239 9.31813C4.37285 8.91629 4.78006 8.67197 5.1819 8.77243L9.1819 9.77243C9.58375 9.87289 9.82807 10.2801 9.72761 10.6819C9.62715 11.0838 9.21994 11.3281 8.8181 11.2276L4.8181 10.2276C4.41625 10.1272 4.17193 9.71998 4.27239 9.31813Z" fill="black"/>
<path d="M5.1819 12.7724C4.78006 12.672 4.37285 12.9163 4.27239 13.3181C4.17193 13.72 4.41625 14.1272 4.8181 14.2276L8.8181 15.2276C9.21994 15.3281 9.62715 15.0838 9.72761 14.6819C9.82807 14.2801 9.58375 13.8729 9.1819 13.7724L5.1819 12.7724Z" fill="black"/>
<path fill-rule="evenodd" clip-rule="evenodd" d="M22.75 5.43323C22.75 3.96992 21.5847 2.71498 20.0559 2.76824C18.9175 2.80789 17.4296 2.9263 16.2849 3.26899C15.2899 3.56687 14.1706 4.14872 13.2982 4.65366C12.4801 5.12712 11.4617 5.15074 10.6328 4.71248C9.63736 4.18609 8.32766 3.56215 7.19136 3.2623C6.23055 3.00876 5.01517 2.88698 4.02841 2.82634C2.47017 2.73057 1.25 3.99868 1.25 5.49784V16.6436C1.25 18.1798 2.49378 19.3792 3.96804 19.4714C4.9268 19.5314 6.00566 19.6467 6.80864 19.8586C7.8012 20.1205 9.0286 20.7029 10.0196 21.2311C11.2529 21.8885 12.7471 21.8885 13.9804 21.2311C14.9714 20.7029 16.1988 20.1205 17.1914 19.8586C17.9943 19.6467 19.0732 19.5314 20.032 19.4714C21.5062 19.3792 22.75 18.1798 22.75 16.6436V5.43323ZM20.1081 4.26733C20.7229 4.24591 21.25 4.75164 21.25 5.43323V16.6436C21.25 17.3294 20.6817 17.9278 19.9383 17.9743C18.9582 18.0356 17.7591 18.1574 16.8086 18.4082C15.6383 18.7171 14.2827 19.3701 13.2748 19.9074C13.1065 19.9971 12.9305 20.0678 12.75 20.1194V6.44207C13.2023 6.35153 13.6421 6.18771 14.0495 5.95191C14.9 5.45972 15.8949 4.95152 16.7151 4.70597C17.6643 4.42182 18.9892 4.3063 20.1081 4.26733ZM11.25 6.47501C10.795 6.40426 10.349 6.25918 9.93167 6.03851C8.95486 5.522 7.77076 4.96654 6.80864 4.71266C5.99643 4.49833 4.90238 4.38288 3.93639 4.32351C3.30243 4.28455 2.75 4.80065 2.75 5.49784V16.6436C2.75 17.3294 3.31831 17.9278 4.06168 17.9743C5.04176 18.0356 6.24092 18.1574 7.19136 18.4082C8.3617 18.7171 9.71727 19.3701 10.7252 19.9074C10.8935 19.9971 11.0695 20.0678 11.25 20.1194V6.47501Z" fill="black"/>
</svg>
