<svg width="24" height="24" viewBox="0 0 24 24" fill="none" xmlns="http://www.w3.org/2000/svg">
<rect width="24" height="24" rx="12" fill="#F0F0F0"/>
<rect x="2" y="2" width="20" height="20" rx="10" fill="#1284EF"/>
<path fill-rule="evenodd" clip-rule="evenodd" d="M8.00489 6.27124C9.12493 5.15119 11.015 5.23634 11.7949 6.63375L12.2276 7.40904C12.7369 8.32159 12.5198 9.47297 11.7743 10.2276C11.7644 10.2412 11.7117 10.3178 11.7052 10.4517C11.6968 10.6226 11.7575 11.0178 12.3698 11.6301C12.9819 12.2422 13.377 12.303 13.548 12.2947C13.682 12.2882 13.7586 12.2355 13.7723 12.2256C14.5269 11.48 15.6783 11.263 16.5908 11.7723L17.3661 12.205C18.7635 12.9848 18.8487 14.8749 17.7286 15.995C17.1295 16.5941 16.3329 17.1264 15.3968 17.1619C14.0095 17.2145 11.706 16.8562 9.42482 14.5751C7.14363 12.2939 6.78537 9.99038 6.83796 8.60309C6.87345 7.66696 7.40578 6.87035 8.00489 6.27124ZM10.9217 7.12108C10.5223 6.40552 9.44921 6.24113 8.71199 6.97835C8.19509 7.49524 7.85905 8.06579 7.83724 8.64097C7.79339 9.79787 8.07901 11.815 10.1319 13.868C12.1848 15.9209 14.202 16.2065 15.3589 16.1626C15.9341 16.1408 16.5046 15.8048 17.0215 15.2879C17.7587 14.5507 17.5944 13.4775 16.8788 13.0782L16.1035 12.6455C15.6212 12.3764 14.9438 12.4682 14.4683 12.9437L14.4681 12.9438C14.4214 12.9905 14.1242 13.2678 13.5966 13.2935C13.0564 13.3198 12.4026 13.0771 11.6627 12.3372C10.9226 11.597 10.6799 10.943 10.7064 10.4028C10.7322 9.87514 11.0097 9.57807 11.0561 9.53164L11.0562 9.53162C11.5317 9.05607 11.6235 8.37865 11.3544 7.89637L10.9217 7.12108Z" fill="white"/>
</svg>
