<svg width="73" height="72" viewBox="0 0 73 72" fill="none" xmlns="http://www.w3.org/2000/svg">
<path fill-rule="evenodd" clip-rule="evenodd" d="M36.5 8.25C21.1741 8.25 8.75 20.6741 8.75 36C8.75 51.3259 21.1741 63.75 36.5 63.75C51.8259 63.75 64.25 51.3259 64.25 36C64.25 20.6741 51.8259 8.25 36.5 8.25ZM4.25 36C4.25 18.1888 18.6888 3.75 36.5 3.75C54.3112 3.75 68.75 18.1888 68.75 36C68.75 53.8112 54.3112 68.25 36.5 68.25C18.6888 68.25 4.25 53.8112 4.25 36ZM36.5 21.75C37.7426 21.75 38.75 22.7574 38.75 24V35.068L45.591 41.909C46.4697 42.7877 46.4697 44.2123 45.591 45.091C44.7123 45.9697 43.2877 45.9697 42.409 45.091L34.909 37.591C34.4871 37.169 34.25 36.5967 34.25 36V24C34.25 22.7574 35.2574 21.75 36.5 21.75Z" fill="#999999"/>
</svg>
