<svg width="51" height="50" viewBox="0 0 51 50" fill="none" xmlns="http://www.w3.org/2000/svg">
<path d="M27.1397 12.0975C27.7236 12.3393 28.1042 12.9091 28.1042 13.541V21.8744C28.1042 22.7373 27.4047 23.4369 26.5417 23.4369C25.6788 23.4369 24.9792 22.7373 24.9792 21.8744V17.3132L24.5216 17.7709C23.9114 18.3811 22.9221 18.3811 22.3119 17.7709C21.7017 17.1607 21.7017 16.1714 22.3119 15.5612L25.4369 12.4362C25.8838 11.9893 26.5558 11.8556 27.1397 12.0975Z" fill="url(#paint0_linear_98_3519)"/>
<path fill-rule="evenodd" clip-rule="evenodd" d="M16.1218 3.34767C18.5444 2.93891 21.6927 2.60352 25.5004 2.60352C29.3082 2.60352 32.4564 2.93891 34.8791 3.34767L35.16 3.39483C37.2646 3.74713 39.0139 4.03995 40.3817 5.72452C41.259 6.80493 41.542 7.97254 41.6072 9.27691L42.6315 9.61835C43.5964 9.9399 44.442 10.2217 45.1129 10.5339C45.8382 10.8713 46.5029 11.3059 47.0111 12.0109C47.5192 12.7159 47.7213 13.484 47.812 14.2788C47.896 15.014 47.8959 15.9054 47.8958 16.9224L47.8958 17.2249C47.8958 18.062 47.8958 18.8014 47.834 19.4198C47.767 20.0899 47.6187 20.7415 47.2482 21.3711C46.8777 22.0008 46.3802 22.4468 45.8269 22.8308C45.3164 23.1851 44.67 23.5442 43.9383 23.9507L38.4369 27.007C37.3131 29.2182 35.7693 31.1895 33.6462 32.6135C31.8239 33.8357 29.6419 34.6093 27.0626 34.8299V39.0619H30.0422C31.7801 39.0619 33.2764 40.2885 33.6172 41.9927L34.0727 44.2702H38.0001C38.863 44.2702 39.5626 44.9697 39.5626 45.8327C39.5626 46.6956 38.863 47.3952 38.0001 47.3952H13.0001C12.1371 47.3952 11.4376 46.6956 11.4376 45.8327C11.4376 44.9697 12.1371 44.2702 13.0001 44.2702H16.9275L17.383 41.9927C17.7238 40.2885 19.2201 39.0619 20.958 39.0619H23.9376V34.8299C21.3585 34.6091 19.1768 33.8356 17.3546 32.6135C15.2316 31.1896 13.6879 29.2185 12.5642 27.0076L7.06178 23.9507C6.33001 23.5442 5.68369 23.1851 5.17314 22.8308C4.61982 22.4468 4.12231 22.0008 3.75181 21.3711C3.38132 20.7415 3.233 20.0899 3.16602 19.4198C3.10422 18.8014 3.10424 18.062 3.10426 17.2249L3.10425 16.9224C3.10417 15.9053 3.10409 15.0139 3.18801 14.2788C3.27873 13.484 3.48082 12.7159 3.98896 12.0109C4.4971 11.3059 5.1618 10.8713 5.8871 10.5339C6.55802 10.2217 7.40369 9.9399 8.36854 9.61835L9.39365 9.27665C9.45889 7.97238 9.74191 6.80486 10.6191 5.72452C11.9869 4.03995 13.7362 3.74713 15.8408 3.39483L16.1218 3.34767ZM20.1144 44.2702H30.8858L30.5529 42.6055C30.5042 42.3621 30.2904 42.1869 30.0422 42.1869H20.958C20.7097 42.1869 20.496 42.3621 20.4473 42.6055L20.1144 44.2702ZM9.46279 12.5476C9.6119 15.7149 9.96966 19.2155 10.8605 22.4862L8.64027 21.2527C7.82953 20.8023 7.32189 20.5182 6.95486 20.2635C6.61649 20.0287 6.50629 19.8902 6.44515 19.7863C6.384 19.6824 6.31649 19.5188 6.27553 19.109C6.2311 18.6645 6.22929 18.0827 6.22926 17.1553L6.22926 17.0042C6.22923 15.8811 6.23157 15.17 6.29285 14.6331C6.34957 14.1362 6.44239 13.9515 6.52412 13.8381C6.60585 13.7247 6.75174 13.5782 7.20522 13.3673C7.69513 13.1394 8.36899 12.9122 9.43444 12.5571L9.46279 12.5476ZM40.1405 22.4857L42.3598 21.2527C43.1705 20.8023 43.6782 20.5182 44.0452 20.2635C44.3835 20.0287 44.4937 19.8902 44.5549 19.7863C44.616 19.6824 44.6836 19.5188 44.7245 19.109C44.7689 18.6645 44.7708 18.0827 44.7708 17.1553L44.7708 17.0042C44.7708 15.8811 44.7685 15.17 44.7072 14.6331C44.6505 14.1362 44.5577 13.9515 44.4759 13.8381C44.3942 13.7247 44.2483 13.5782 43.7948 13.3673C43.3049 13.1394 42.6311 12.9122 41.5656 12.5571L41.538 12.5479C41.3889 15.715 41.0312 19.2153 40.1405 22.4857ZM25.5004 5.72852C21.8767 5.72852 18.9026 6.04765 16.6417 6.42912C14.1273 6.85336 13.5991 7.01206 13.0451 7.69431C12.4992 8.36669 12.4473 9.00261 12.5594 11.8258C12.7462 16.5314 13.367 21.6092 15.2893 25.4711C16.2382 27.3774 17.4789 28.9341 19.0953 30.0182C20.7013 31.0953 22.7732 31.7702 25.5004 31.7702C28.2276 31.7702 30.2996 31.0953 31.9055 30.0182C33.5219 28.9341 34.7626 27.3774 35.7115 25.4711C37.6339 21.6092 38.2546 16.5314 38.4414 11.8258C38.5535 9.00261 38.5016 8.36669 37.9557 7.69431C37.4017 7.01206 36.8735 6.85336 34.3591 6.42912C32.0982 6.04765 29.1241 5.72852 25.5004 5.72852Z" fill="url(#paint1_linear_98_3519)"/>
<defs>
<linearGradient id="paint0_linear_98_3519" x1="25.5" y1="2.60352" x2="25.5" y2="47.3952" gradientUnits="userSpaceOnUse">
<stop stop-color="#FFD700"/>
<stop offset="1" stop-color="#E1DA00"/>
</linearGradient>
<linearGradient id="paint1_linear_98_3519" x1="25.5" y1="2.60352" x2="25.5" y2="47.3952" gradientUnits="userSpaceOnUse">
<stop stop-color="#FFD700"/>
<stop offset="1" stop-color="#E1DA00"/>
</linearGradient>
</defs>
</svg>
