<svg width="40" height="40" viewBox="0 0 40 40" fill="none" xmlns="http://www.w3.org/2000/svg">
<path fill-rule="evenodd" clip-rule="evenodd" d="M18.2467 2.08399H21.7534C23.2509 2.08394 24.4996 2.0839 25.4909 2.21717C26.5372 2.35785 27.4819 2.6673 28.241 3.42642C29.0001 4.18553 29.3096 5.1302 29.4502 6.17652C29.5835 7.16783 29.5835 8.41653 29.5834 9.914L29.5834 12.3413C32.6474 15.0147 34.5834 18.9482 34.5834 23.334C34.5834 31.3881 28.0542 37.9173 20.0001 37.9173C11.9459 37.9173 5.41675 31.3881 5.41675 23.334C5.41675 18.9482 7.35274 15.0147 10.4167 12.3413L10.4167 9.91398C10.4167 8.41652 10.4167 7.16782 10.5499 6.17652C10.6906 5.1302 11.0001 4.18553 11.7592 3.42642C12.5183 2.6673 13.463 2.35785 14.5093 2.21717C15.5006 2.0839 16.7493 2.08394 18.2467 2.08399ZM12.9167 10.5834C15.014 9.41581 17.4294 8.75065 20.0001 8.75065C22.5708 8.75065 24.9861 9.41581 27.0834 10.5834V10.0007C27.0834 8.39397 27.0808 7.3147 26.9725 6.50964C26.8691 5.74054 26.6904 5.41138 26.4732 5.19418C26.256 4.97699 25.9269 4.79828 25.1578 4.69488C24.3527 4.58664 23.2734 4.58399 21.6667 4.58399H18.3334C16.7267 4.58399 15.6475 4.58664 14.8424 4.69488C14.0733 4.79828 13.7441 4.97699 13.5269 5.19418C13.3097 5.41138 13.131 5.74054 13.0276 6.50964C12.9194 7.3147 12.9167 8.39397 12.9167 10.0007V10.5834ZM20.0001 11.2507C13.3266 11.2507 7.91675 16.6605 7.91675 23.334C7.91675 30.0074 13.3266 35.4173 20.0001 35.4173C26.6735 35.4173 32.0834 30.0074 32.0834 23.334C32.0834 16.6605 26.6735 11.2507 20.0001 11.2507ZM20.0001 20.0581C19.9032 20.2259 19.7954 20.419 19.6685 20.6468L19.5046 20.9407C19.4931 20.9615 19.4807 20.9841 19.4674 21.0084C19.3365 21.2478 19.1198 21.6441 18.7584 21.9185C18.3894 22.1986 17.9456 22.295 17.6861 22.3513C17.6601 22.357 17.6359 22.3622 17.6139 22.3672L17.2957 22.4392C17.0037 22.5052 16.7659 22.5591 16.5626 22.6102C16.6948 22.7731 16.8667 22.9752 17.0901 23.2365L17.307 23.4902C17.3224 23.5082 17.3392 23.5275 17.357 23.548C17.5369 23.7552 17.8273 24.0898 17.9616 24.5217C18.0944 24.9485 18.0486 25.388 18.0197 25.6654C18.0168 25.693 18.0141 25.7191 18.0117 25.7433L17.979 26.0818C17.9485 26.3955 17.9249 26.646 17.9092 26.8496C18.0828 26.7731 18.2804 26.6822 18.5151 26.5741L18.813 26.437C18.8335 26.4275 18.856 26.4169 18.8803 26.4055C19.1195 26.2927 19.5356 26.0964 20.0001 26.0964C20.4645 26.0964 20.8807 26.2927 21.1199 26.4055C21.1441 26.4169 21.1666 26.4275 21.1871 26.437L21.485 26.5741C21.7197 26.6822 21.9173 26.7731 22.091 26.8496C22.0753 26.646 22.0516 26.3955 22.0212 26.0817L21.9884 25.7433C21.9861 25.7191 21.9834 25.693 21.9805 25.6654C21.9516 25.388 21.9058 24.9485 22.0385 24.5217C22.1728 24.0897 22.4633 23.7552 22.6432 23.548C22.661 23.5275 22.6777 23.5082 22.6931 23.4902L22.91 23.2365C23.1335 22.9752 23.3053 22.7731 23.4376 22.6102C23.2342 22.5591 22.9964 22.5052 22.7045 22.4392L22.3863 22.3672C22.3642 22.3622 22.3401 22.357 22.3141 22.3513C22.0546 22.295 21.6108 22.1986 21.2418 21.9185C20.8804 21.6441 20.6636 21.2478 20.5328 21.0084C20.5195 20.9841 20.5071 20.9615 20.4955 20.9407L20.3317 20.6468C20.2047 20.419 20.097 20.2259 20.0001 20.0581ZM18.3559 18C18.6429 17.6253 19.1639 17.084 20.0001 17.084C20.8362 17.084 21.3573 17.6253 21.6443 18C21.9181 18.3577 22.1939 18.8527 22.4767 19.3603C22.4896 19.3833 22.5024 19.4064 22.5153 19.4295L22.6792 19.7235C22.7172 19.7916 22.7471 19.8453 22.7733 19.8911C22.8188 19.9018 22.8718 19.9138 22.938 19.9288L23.2562 20.0008C23.2822 20.0067 23.3083 20.0126 23.3344 20.0185C23.8807 20.142 24.4237 20.2646 24.8405 20.4289C25.3007 20.6103 25.9246 20.9635 26.165 21.7367C26.4012 22.4962 26.1031 23.1396 25.8428 23.5531C25.6019 23.9358 25.2357 24.3638 24.8609 24.8019C24.8439 24.8217 24.827 24.8415 24.81 24.8614L24.5931 25.115C24.5356 25.1822 24.4923 25.2329 24.4558 25.2768C24.4608 25.3373 24.4676 25.4079 24.4768 25.5022L24.5096 25.8406C24.5121 25.8664 24.5146 25.8922 24.5171 25.918C24.574 26.5045 24.6291 27.0714 24.6089 27.5248C24.5877 28.0002 24.4736 28.7199 23.8283 29.2097C23.1626 29.7151 22.4275 29.6049 21.9613 29.4713C21.5317 29.3482 21.0241 29.1144 20.5129 28.8788C20.4884 28.8675 20.4639 28.8563 20.4395 28.845L20.1416 28.7078C20.0858 28.6822 20.04 28.6611 20.0001 28.643C19.9602 28.6611 19.9144 28.6822 19.8586 28.7078L19.5607 28.845C19.5362 28.8563 19.5117 28.8676 19.4872 28.8788C18.976 29.1144 18.4685 29.3483 18.0389 29.4713C17.5727 29.6049 16.8375 29.7151 16.1718 29.2097C15.5266 28.7199 15.4125 28.0002 15.3913 27.5248C15.3711 27.0714 15.4261 26.5045 15.4831 25.918C15.4856 25.8922 15.4881 25.8664 15.4906 25.8406L15.5234 25.5022C15.5325 25.4079 15.5393 25.3373 15.5443 25.2768C15.5078 25.2329 15.4645 25.1822 15.407 25.115L15.1901 24.8614C15.1732 24.8415 15.1562 24.8217 15.1393 24.8019C14.7644 24.3637 14.3983 23.9358 14.1573 23.5531C13.897 23.1396 13.599 22.4962 13.8352 21.7367C14.0756 20.9635 14.6994 20.6103 15.1597 20.4289C15.5765 20.2646 16.1195 20.142 16.6658 20.0185C16.6919 20.0126 16.7179 20.0067 16.744 20.0008L17.0622 19.9288C17.1284 19.9138 17.1814 19.9018 17.2269 19.8911C17.2531 19.8453 17.283 19.7916 17.321 19.7235L17.4848 19.4295C17.4977 19.4064 17.5106 19.3833 17.5234 19.3603C17.8062 18.8527 18.082 18.3577 18.3559 18Z" fill="url(#paint0_linear_100_3665)"/>
<defs>
<linearGradient id="paint0_linear_100_3665" x1="20.0001" y1="2.08398" x2="20.0001" y2="37.9173" gradientUnits="userSpaceOnUse">
<stop stop-color="#CD7F32"/>
<stop offset="1" stop-color="#A96B2E"/>
</linearGradient>
</defs>
</svg>
