<svg width="40" height="40" viewBox="0 0 40 40" fill="none" xmlns="http://www.w3.org/2000/svg">
<path fill-rule="evenodd" clip-rule="evenodd" d="M18.2466 2.08399H21.7532C23.2507 2.08394 24.4994 2.0839 25.4907 2.21717C26.537 2.35785 27.4817 2.6673 28.2408 3.42642C28.9999 4.18553 29.3094 5.1302 29.4501 6.17652C29.5833 7.16783 29.5833 8.41653 29.5832 9.914L29.5832 12.1358L30.9823 12.8987C32.9907 13.9938 34.2403 16.0985 34.2403 18.386V26.6154C34.2403 28.9028 32.9907 31.0075 30.9823 32.1026L22.992 36.4596C21.1269 37.4766 18.8729 37.4766 17.0078 36.4596L9.01745 32.1026C7.00915 31.0075 5.75952 28.9028 5.75952 26.6154V18.386C5.75952 16.0985 7.00915 13.9938 9.01745 12.8987L10.4166 12.1358L10.4166 9.91399C10.4165 8.41652 10.4165 7.16782 10.5498 6.17652C10.6904 5.1302 10.9999 4.18553 11.759 3.42642C12.5181 2.6673 13.4628 2.35785 14.5091 2.21717C15.5004 2.0839 16.7491 2.08394 18.2466 2.08399ZM12.9166 10.7726L17.0078 8.54174C18.8729 7.52475 21.1269 7.52475 22.992 8.54174L27.0832 10.7726V10.0007C27.0832 8.39397 27.0806 7.3147 26.9723 6.50964C26.8689 5.74054 26.6902 5.41138 26.473 5.19418C26.2558 4.97699 25.9267 4.79828 25.1576 4.69488C24.3525 4.58664 23.2733 4.58399 21.6666 4.58399H18.3332C16.7266 4.58399 15.6473 4.58664 14.8422 4.69488C14.0731 4.79828 13.744 4.97699 13.5268 5.19418C13.3096 5.41138 13.1309 5.74054 13.0275 6.50964C12.9192 7.3147 12.9166 8.39397 12.9166 10.0007V10.7726ZM21.7951 10.7366C20.6761 10.1265 19.3237 10.1264 18.2047 10.7366L10.2143 15.0936C9.0093 15.7506 8.25952 17.0135 8.25952 18.386V26.6154C8.25952 27.9878 9.0093 29.2507 10.2143 29.9077L18.2047 34.2647C19.3237 34.8749 20.6761 34.8749 21.7951 34.2647L29.7855 29.9077C30.9905 29.2507 31.7403 27.9878 31.7403 26.6154V18.386C31.7403 17.0135 30.9905 15.7506 29.7855 15.0936L21.7951 10.7366ZM19.9999 19.2251C19.903 19.3928 19.7953 19.586 19.6683 19.8137L19.5045 20.1077C19.4929 20.1284 19.4805 20.1511 19.4672 20.1753C19.3363 20.4147 19.1196 20.8111 18.7582 21.0854C18.3892 21.3655 17.9454 21.4619 17.6859 21.5182C17.6599 21.5239 17.6357 21.5291 17.6137 21.5341L17.2955 21.6061C17.0036 21.6722 16.7658 21.7261 16.5624 21.7772C16.6947 21.94 16.8665 22.1422 17.09 22.4035L17.3069 22.6571C17.3223 22.6751 17.339 22.6944 17.3568 22.7149C17.5367 22.9221 17.8271 23.2567 17.9615 23.6886C18.0942 24.1154 18.0484 24.555 18.0195 24.8323C18.0166 24.86 18.0139 24.886 18.0116 24.9103L17.9788 25.2487C17.9484 25.5625 17.9247 25.8129 17.909 26.0165C18.0827 25.94 18.2802 25.8491 18.515 25.7411L18.8129 25.6039C18.8334 25.5945 18.8558 25.5839 18.8801 25.5724C19.1193 25.4596 19.5355 25.2633 19.9999 25.2633C20.4644 25.2633 20.8805 25.4596 21.1197 25.5724C21.144 25.5839 21.1664 25.5945 21.1869 25.6039L21.4849 25.7411C21.7196 25.8491 21.9171 25.94 22.0908 26.0165C22.0751 25.8129 22.0514 25.5625 22.021 25.2487L21.9882 24.9103C21.9859 24.886 21.9832 24.86 21.9803 24.8323C21.9514 24.555 21.9056 24.1154 22.0384 23.6886C22.1727 23.2567 22.4631 22.9221 22.643 22.7149C22.6608 22.6944 22.6776 22.6751 22.6929 22.6571L22.9099 22.4035C23.1333 22.1422 23.3051 21.94 23.4374 21.7772C23.2341 21.7261 22.9962 21.6722 22.7043 21.6061L22.3861 21.5341C22.3641 21.5291 22.3399 21.5239 22.3139 21.5182C22.0544 21.4619 21.6106 21.3655 21.2416 21.0854C20.8802 20.8111 20.6635 20.4147 20.5326 20.1753C20.5193 20.1511 20.5069 20.1284 20.4953 20.1077L20.3315 19.8137C20.2045 19.586 20.0968 19.3928 19.9999 19.2251ZM18.3557 17.167C18.6427 16.7923 19.1637 16.2509 19.9999 16.2509C20.8361 16.2509 21.3571 16.7923 21.6441 17.167C21.918 17.5246 22.1938 18.0197 22.4765 18.5272C22.4894 18.5503 22.5023 18.5734 22.5151 18.5965L22.679 18.8904C22.717 18.9586 22.7469 19.0122 22.7731 19.0581C22.8186 19.0688 22.8716 19.0808 22.9378 19.0958L23.256 19.1677C23.282 19.1736 23.3081 19.1795 23.3342 19.1854C23.8805 19.3089 24.4235 19.4316 24.8403 19.5958C25.3005 19.7772 25.9244 20.1304 26.1648 20.9036C26.401 21.6632 26.1029 22.3065 25.8426 22.72C25.6017 23.1027 25.2356 23.5307 24.8607 23.9688C24.8438 23.9886 24.8268 24.0084 24.8099 24.0283L24.5929 24.2819C24.5355 24.3491 24.4921 24.3998 24.4557 24.4437C24.4606 24.5042 24.4674 24.5748 24.4766 24.6691L24.5094 25.0076C24.5119 25.0334 24.5144 25.0592 24.5169 25.0849C24.5738 25.6714 24.6289 26.2383 24.6087 26.6917C24.5875 27.1671 24.4734 27.8868 23.8281 28.3766C23.1625 28.882 22.4273 28.7718 21.9611 28.6383C21.5315 28.5152 21.0239 28.2813 20.5127 28.0458C20.4883 28.0345 20.4638 28.0232 20.4393 28.0119L20.1414 27.8748C20.0856 27.8491 20.0398 27.828 19.9999 27.8099C19.96 27.828 19.9142 27.8491 19.8584 27.8748L19.5605 28.0119C19.536 28.0232 19.5115 28.0345 19.4871 28.0458C18.9759 28.2813 18.4683 28.5152 18.0387 28.6383C17.5725 28.7718 16.8374 28.882 16.1717 28.3766C15.5264 27.8868 15.4123 27.1671 15.3911 26.6917C15.3709 26.2383 15.426 25.6714 15.4829 25.0849C15.4854 25.0592 15.4879 25.0334 15.4904 25.0076L15.5232 24.6691C15.5324 24.5748 15.5392 24.5042 15.5441 24.4437C15.5077 24.3998 15.4643 24.3491 15.4069 24.2819L15.19 24.0283C15.173 24.0084 15.156 23.9886 15.1391 23.9688C14.7642 23.5307 14.3981 23.1027 14.1572 22.72C13.8969 22.3065 13.5988 21.6631 13.835 20.9036C14.0754 20.1304 14.6993 19.7772 15.1595 19.5958C15.5763 19.4316 16.1193 19.3089 16.6656 19.1854C16.6917 19.1795 16.7178 19.1736 16.7438 19.1677L17.062 19.0958C17.1282 19.0808 17.1812 19.0688 17.2267 19.0581C17.2529 19.0122 17.2828 18.9586 17.3208 18.8904L17.4847 18.5965C17.4975 18.5734 17.5104 18.5503 17.5233 18.5272C17.806 18.0197 18.0819 17.5246 18.3557 17.167Z" fill="url(#paint0_linear_98_3511)"/>
<defs>
<linearGradient id="paint0_linear_98_3511" x1="19.9999" y1="2.08398" x2="19.9999" y2="37.2223" gradientUnits="userSpaceOnUse">
<stop stop-color="#C0C0C0"/>
<stop offset="1" stop-color="#838383"/>
</linearGradient>
</defs>
</svg>
