<svg width="32" height="32" viewBox="0 0 32 32" fill="none" xmlns="http://www.w3.org/2000/svg">
<path d="M3.66675 2.66602C3.66675 2.11373 3.21903 1.66602 2.66675 1.66602C2.11446 1.66602 1.66675 2.11373 1.66675 2.66602V16.0759C1.66673 19.1537 1.66672 21.5658 1.91974 23.4477C2.17873 25.3741 2.71918 26.8941 3.91226 28.0872C5.10534 29.2802 6.62537 29.8207 8.55169 30.0797C10.4337 30.3327 12.8457 30.3327 15.9236 30.3327H29.3334C29.8857 30.3327 30.3334 29.885 30.3334 29.3327C30.3334 28.7804 29.8857 28.3327 29.3334 28.3327H16.0001C12.8291 28.3327 10.5515 28.3306 8.81818 28.0975C7.11365 27.8684 6.08602 27.4325 5.32648 26.673C4.56694 25.9134 4.13108 24.8858 3.90191 23.1812C3.66887 21.4479 3.66675 19.1703 3.66675 15.9993V2.66602Z" fill="black"/>
<path d="M26.1167 9.95456C26.4602 9.52206 26.388 8.89303 25.9555 8.54957C25.523 8.20612 24.894 8.2783 24.5505 8.7108L20.3932 13.946C20.0662 14.3578 19.8517 14.627 19.6749 14.821C19.5021 15.0107 19.421 15.0646 19.384 15.0843C19.103 15.2345 18.7672 15.2418 18.4799 15.104C18.4422 15.0858 18.3588 15.0356 18.1779 14.8536C17.9929 14.6675 17.7669 14.4078 17.4223 14.0106L17.4007 13.9858C17.0836 13.6203 16.8131 13.3085 16.5745 13.0685C16.3265 12.8189 16.0552 12.5861 15.7193 12.4249C14.8574 12.0113 13.8501 12.0332 13.007 12.4839C12.6784 12.6596 12.4175 12.904 12.1806 13.164C11.9526 13.4142 11.696 13.7374 11.395 14.1164L7.21698 19.3775C6.87352 19.8099 6.94569 20.439 7.37819 20.7824C7.81068 21.1259 8.43972 21.0537 8.78318 20.6212L12.9408 15.386C13.2678 14.9742 13.4823 14.7049 13.659 14.511C13.8318 14.3212 13.913 14.2674 13.9499 14.2477C14.2309 14.0975 14.5667 14.0902 14.854 14.228C14.8917 14.2462 14.9751 14.2964 15.156 14.4784C15.341 14.6645 15.567 14.9242 15.9116 15.3213L15.9332 15.3462C16.2503 15.7117 16.5208 16.0235 16.7594 16.2635C17.0074 16.5131 17.2787 16.7459 17.6146 16.9071C18.4765 17.3207 19.4839 17.2988 20.327 16.8481C20.6556 16.6724 20.9164 16.428 21.1534 16.1679C21.3813 15.9177 21.638 15.5945 21.9389 15.2155L26.1167 9.95456Z" fill="black"/>
</svg>
