<svg width="329" height="16" viewBox="0 0 329 16" fill="none" xmlns="http://www.w3.org/2000/svg">
<path d="M1 10L3.29424 8.0638C6.08156 5.71148 10.1533 5.69257 12.9624 8.01889V8.01889C15.7511 10.3284 19.7994 10.319 22.5882 8.00947V8.00947C25.3901 5.68901 29.4577 5.67954 32.2596 8V8C35.0616 10.3205 39.1177 10.3205 41.9197 8V8C44.7216 5.67954 48.7777 5.67954 51.5797 8V8C54.3817 10.3205 58.4378 10.3205 61.2397 8V8C64.0417 5.67954 68.0978 5.67954 70.8998 8V8C73.7017 10.3205 77.7579 10.3205 80.5598 8V8C83.3618 5.67954 87.4179 5.67954 90.2199 8V8C93.0218 10.3205 97.0779 10.3205 99.8799 8V8C102.682 5.67954 106.738 5.67954 109.54 8V8C112.342 10.3205 116.398 10.3205 119.2 8V8C122.002 5.67954 126.058 5.67954 128.86 8V8C131.662 10.3205 135.718 10.3205 138.52 8L138.797 7.77083C141.503 5.52937 145.355 5.31484 148.294 7.2419L152.5 10" stroke="#999999" stroke-linecap="round"/>
<path fill-rule="evenodd" clip-rule="evenodd" d="M164.458 0.833496H164.542C165.884 0.833486 166.944 0.833477 167.715 0.935225C168.474 1.03523 169.155 1.25562 169.479 1.88407C169.526 1.97461 169.565 2.0687 169.597 2.16546C169.818 2.83945 169.491 3.47607 169.025 4.07862C168.552 4.69139 167.802 5.43357 166.854 6.3732L165.211 8.00016L166.854 9.62712C167.802 10.5668 168.552 11.3089 169.025 11.9217C169.491 12.5243 169.818 13.1609 169.597 13.8349C169.565 13.9316 169.526 14.0257 169.479 14.1163C169.155 14.7447 168.474 14.9651 167.715 15.0651C166.944 15.1668 165.884 15.1668 164.542 15.1668H164.458C163.116 15.1668 162.056 15.1668 161.285 15.0651C160.526 14.9651 159.845 14.7447 159.521 14.1163C159.474 14.0257 159.435 13.9316 159.403 13.8349C159.183 13.1609 159.509 12.5243 159.975 11.9217C160.448 11.3089 161.198 10.5668 162.147 9.62712L163.789 8.00016L162.147 6.37321C161.198 5.43357 160.448 4.69139 159.975 4.07862C159.509 3.47607 159.183 2.83945 159.403 2.16547C159.435 2.0687 159.474 1.97461 159.521 1.88407C159.845 1.25562 160.526 1.03523 161.285 0.935225C162.056 0.833477 163.116 0.833486 164.458 0.833496ZM164.5 7.29649L166.12 5.69226C167.105 4.71656 167.806 4.02086 168.234 3.46728C168.674 2.89706 168.698 2.63518 168.646 2.47685C168.631 2.43052 168.612 2.38541 168.59 2.34194C168.512 2.19088 168.304 2.02151 167.585 1.92665C166.886 1.83457 165.893 1.8335 164.5 1.8335C163.107 1.8335 162.114 1.83457 161.415 1.92665C160.696 2.02151 160.488 2.19088 160.41 2.34194C160.388 2.38541 160.369 2.43052 160.354 2.47684C160.302 2.63518 160.326 2.89706 160.766 3.46728C161.194 4.02086 161.895 4.71656 162.88 5.69227L164.5 7.29649ZM164.5 8.70384L162.88 10.3081C161.895 11.2838 161.194 11.9795 160.766 12.533C160.326 13.1033 160.302 13.3651 160.354 13.5235C160.369 13.5698 160.388 13.6149 160.41 13.6584C160.488 13.8094 160.696 13.9788 161.415 14.0737C162.114 14.1658 163.107 14.1668 164.5 14.1668C165.893 14.1668 166.886 14.1658 167.585 14.0737C168.304 13.9788 168.512 13.8094 168.59 13.6584C168.612 13.6149 168.631 13.5698 168.646 13.5235C168.698 13.3651 168.674 13.1033 168.234 12.533C167.806 11.9795 167.105 11.2838 166.12 10.3081L164.5 8.70384Z" fill="#999999"/>
<path d="M176.5 10L178.794 8.0638C181.582 5.71148 185.653 5.69257 188.462 8.01889V8.01889C191.251 10.3284 195.299 10.319 198.088 8.00947V8.00947C200.89 5.68901 204.958 5.67954 207.76 8V8C210.562 10.3205 214.618 10.3205 217.42 8V8C220.222 5.67954 224.278 5.67954 227.08 8V8C229.882 10.3205 233.938 10.3205 236.74 8V8C239.542 5.67954 243.598 5.67954 246.4 8V8C249.202 10.3205 253.258 10.3205 256.06 8V8C258.862 5.67954 262.918 5.67954 265.72 8V8C268.522 10.3205 272.578 10.3205 275.38 8V8C278.182 5.67954 282.238 5.67954 285.04 8V8C287.842 10.3205 291.898 10.3205 294.7 8V8C297.502 5.67954 301.558 5.67954 304.36 8V8C307.162 10.3205 311.218 10.3205 314.02 8L314.297 7.77083C317.003 5.52937 320.855 5.31484 323.794 7.2419L328 10" stroke="#999999" stroke-linecap="round"/>
</svg>
