<svg width="329" height="16" viewBox="0 0 329 16" fill="none" xmlns="http://www.w3.org/2000/svg">
<path d="M1 10L3.29424 8.0638C6.08156 5.71148 10.1533 5.69257 12.9624 8.01889V8.01889C15.7511 10.3284 19.7994 10.319 22.5882 8.00947V8.00947C25.3901 5.68901 29.4577 5.67954 32.2596 8V8C35.0616 10.3205 39.1177 10.3205 41.9197 8V8C44.7216 5.67954 48.7777 5.67954 51.5797 8V8C54.3817 10.3205 58.4378 10.3205 61.2397 8V8C64.0417 5.67954 68.0978 5.67954 70.8998 8V8C73.7017 10.3205 77.7579 10.3205 80.5598 8V8C83.3618 5.67954 87.4179 5.67954 90.2199 8V8C93.0218 10.3205 97.0779 10.3205 99.8799 8V8C102.682 5.67954 106.738 5.67954 109.54 8V8C112.342 10.3205 116.398 10.3205 119.2 8V8C122.002 5.67954 126.058 5.67954 128.86 8V8C131.662 10.3205 135.718 10.3205 138.52 8L138.797 7.77083C141.503 5.52937 145.355 5.31484 148.294 7.2419L152.5 10" stroke="#999999" stroke-linecap="round"/>
<path fill-rule="evenodd" clip-rule="evenodd" d="M160.833 1.1665C159.084 1.1665 157.667 2.58427 157.667 4.33317C157.667 6.08207 159.084 7.49984 160.833 7.49984C162.582 7.49984 164 6.08207 164 4.33317C164 2.58427 162.582 1.1665 160.833 1.1665ZM158.667 4.33317C158.667 3.13655 159.637 2.1665 160.833 2.1665C162.03 2.1665 163 3.13655 163 4.33317C163 5.52979 162.03 6.49984 160.833 6.49984C159.637 6.49984 158.667 5.52979 158.667 4.33317Z" fill="#999999"/>
<path fill-rule="evenodd" clip-rule="evenodd" d="M168.167 8.49984C166.418 8.49984 165 9.9176 165 11.6665C165 13.4154 166.418 14.8332 168.167 14.8332C169.915 14.8332 171.333 13.4154 171.333 11.6665C171.333 9.9176 169.915 8.49984 168.167 8.49984ZM166 11.6665C166 10.4699 166.97 9.49984 168.167 9.49984C169.363 9.49984 170.333 10.4699 170.333 11.6665C170.333 12.8631 169.363 13.8332 168.167 13.8332C166.97 13.8332 166 12.8631 166 11.6665Z" fill="#999999"/>
<path fill-rule="evenodd" clip-rule="evenodd" d="M165 4.33317C165 2.58427 166.418 1.1665 168.167 1.1665C169.915 1.1665 171.333 2.58427 171.333 4.33317C171.333 6.08207 169.915 7.49984 168.167 7.49984C166.418 7.49984 165 6.08207 165 4.33317ZM168.167 2.1665C166.97 2.1665 166 3.13655 166 4.33317C166 5.52979 166.97 6.49984 168.167 6.49984C169.363 6.49984 170.333 5.52979 170.333 4.33317C170.333 3.13655 169.363 2.1665 168.167 2.1665Z" fill="#999999"/>
<path fill-rule="evenodd" clip-rule="evenodd" d="M160.833 8.49984C159.084 8.49984 157.667 9.9176 157.667 11.6665C157.667 13.4154 159.084 14.8332 160.833 14.8332C162.582 14.8332 164 13.4154 164 11.6665C164 9.9176 162.582 8.49984 160.833 8.49984ZM158.667 11.6665C158.667 10.4699 159.637 9.49984 160.833 9.49984C162.03 9.49984 163 10.4699 163 11.6665C163 12.8631 162.03 13.8332 160.833 13.8332C159.637 13.8332 158.667 12.8631 158.667 11.6665Z" fill="#999999"/>
<path d="M176.5 10L178.794 8.0638C181.582 5.71148 185.653 5.69257 188.462 8.01889V8.01889C191.251 10.3284 195.299 10.319 198.088 8.00947V8.00947C200.89 5.68901 204.958 5.67954 207.76 8V8C210.562 10.3205 214.618 10.3205 217.42 8V8C220.222 5.67954 224.278 5.67954 227.08 8V8C229.882 10.3205 233.938 10.3205 236.74 8V8C239.542 5.67954 243.598 5.67954 246.4 8V8C249.202 10.3205 253.258 10.3205 256.06 8V8C258.862 5.67954 262.918 5.67954 265.72 8V8C268.522 10.3205 272.578 10.3205 275.38 8V8C278.182 5.67954 282.238 5.67954 285.04 8V8C287.842 10.3205 291.898 10.3205 294.7 8V8C297.502 5.67954 301.558 5.67954 304.36 8V8C307.162 10.3205 311.218 10.3205 314.02 8L314.297 7.77083C317.003 5.52937 320.855 5.31484 323.794 7.2419L328 10" stroke="#999999" stroke-linecap="round"/>
</svg>
