<svg width="56" height="56" viewBox="0 0 56 56" fill="none" xmlns="http://www.w3.org/2000/svg">
<path fill-rule="evenodd" clip-rule="evenodd" d="M15 27.9997C15 25.9746 16.6416 24.333 18.6667 24.333C20.6917 24.333 22.3333 25.9746 22.3333 27.9997C22.3333 30.0247 20.6917 31.6663 18.6667 31.6663C16.6416 31.6663 15 30.0247 15 27.9997ZM18.6667 26.333C17.7462 26.333 17 27.0792 17 27.9997C17 28.9201 17.7462 29.6663 18.6667 29.6663C19.5871 29.6663 20.3333 28.9201 20.3333 27.9997C20.3333 27.0792 19.5871 26.333 18.6667 26.333Z" fill="black"/>
<path fill-rule="evenodd" clip-rule="evenodd" d="M24.3333 27.9997C24.3333 25.9746 25.975 24.333 28 24.333C30.025 24.333 31.6667 25.9746 31.6667 27.9997C31.6667 30.0247 30.025 31.6663 28 31.6663C25.975 31.6663 24.3333 30.0247 24.3333 27.9997ZM28 26.333C27.0795 26.333 26.3333 27.0792 26.3333 27.9997C26.3333 28.9201 27.0795 29.6663 28 29.6663C28.9205 29.6663 29.6667 28.9201 29.6667 27.9997C29.6667 27.0792 28.9205 26.333 28 26.333Z" fill="black"/>
<path fill-rule="evenodd" clip-rule="evenodd" d="M37.3333 24.333C35.3083 24.333 33.6667 25.9746 33.6667 27.9997C33.6667 30.0247 35.3083 31.6663 37.3333 31.6663C39.3584 31.6663 41 30.0247 41 27.9997C41 25.9746 39.3584 24.333 37.3333 24.333ZM35.6667 27.9997C35.6667 27.0792 36.4129 26.333 37.3333 26.333C38.2538 26.333 39 27.0792 39 27.9997C39 28.9201 38.2538 29.6663 37.3333 29.6663C36.4129 29.6663 35.6667 28.9201 35.6667 27.9997Z" fill="black"/>
</svg>
