<svg width="20" height="20" viewBox="0 0 20 20" fill="none" xmlns="http://www.w3.org/2000/svg">
<path fill-rule="evenodd" clip-rule="evenodd" d="M13.0092 1.31985C14.3897 1.12262 15.6249 2.19389 15.6249 3.58848V4.73557C16.6161 5.25953 17.2916 6.30095 17.2916 7.50013V15.8335C17.2916 17.5594 15.8925 18.9585 14.1666 18.9585H5.83325C4.10736 18.9585 2.70825 17.5594 2.70825 15.8335V4.1668C2.70825 4.15905 2.70839 4.15134 2.70867 4.14366C2.70839 4.13167 2.70825 4.11964 2.70825 4.10758C2.70825 3.35237 3.26357 2.71208 4.01119 2.60527L13.0092 1.31985ZM3.95825 5.62513V15.8335C3.95825 16.869 4.79772 17.7085 5.83325 17.7085H14.1666C15.2021 17.7085 16.0416 16.869 16.0416 15.8335V7.50013C16.0416 6.4646 15.2021 5.62513 14.1666 5.62513H3.95825ZM4.22581 4.37513H14.3749V3.58848C14.3749 2.95458 13.8135 2.46764 13.1859 2.55729L4.18797 3.84271C4.05616 3.86154 3.95825 3.97443 3.95825 4.10758C3.95825 4.25535 4.07804 4.37513 4.22581 4.37513ZM6.04159 10.0001C6.04159 9.65496 6.32141 9.37514 6.66659 9.37514H13.3333C13.6784 9.37514 13.9583 9.65496 13.9583 10.0001C13.9583 10.3453 13.6784 10.6251 13.3333 10.6251H6.66659C6.32141 10.6251 6.04159 10.3453 6.04159 10.0001ZM6.04159 12.9168C6.04159 12.5716 6.32141 12.2918 6.66659 12.2918H11.2499C11.5951 12.2918 11.8749 12.5716 11.8749 12.9168C11.8749 13.262 11.5951 13.5418 11.2499 13.5418H6.66659C6.32141 13.5418 6.04159 13.262 6.04159 12.9168Z" fill="black"/>
</svg>
