<svg width="25" height="30" viewBox="0 0 25 30" fill="none" xmlns="http://www.w3.org/2000/svg">
<path fill-rule="evenodd" clip-rule="evenodd" d="M12.625 0.666504C9.12717 0.666504 6.29164 3.50203 6.29164 6.99984C6.29164 10.4976 9.12717 13.3332 12.625 13.3332C16.1228 13.3332 18.9583 10.4976 18.9583 6.99984C18.9583 3.50203 16.1228 0.666504 12.625 0.666504ZM8.29164 6.99984C8.29164 4.6066 10.2317 2.6665 12.625 2.6665C15.0182 2.6665 16.9583 4.6066 16.9583 6.99984C16.9583 9.39307 15.0182 11.3332 12.625 11.3332C10.2317 11.3332 8.29164 9.39307 8.29164 6.99984Z" fill="#999999"/>
<path fill-rule="evenodd" clip-rule="evenodd" d="M12.625 15.3332C9.54024 15.3332 6.69821 16.0343 4.59224 17.219C2.51762 18.3859 0.958309 20.1546 0.958309 22.3332L0.95822 22.4691C0.956714 24.0182 0.954823 25.9625 2.66019 27.3512C3.49948 28.0347 4.67361 28.5207 6.25992 28.8418C7.85066 29.1638 9.92394 29.3332 12.625 29.3332C15.326 29.3332 17.3993 29.1638 18.99 28.8418C20.5763 28.5207 21.7505 28.0347 22.5898 27.3512C24.2951 25.9625 24.2932 24.0182 24.2917 22.4691L24.2916 22.3332C24.2916 20.1546 22.7323 18.3859 20.6577 17.219C18.5517 16.0343 15.7097 15.3332 12.625 15.3332ZM2.95831 22.3332C2.95831 21.198 3.78681 19.9667 5.57276 18.9621C7.32737 17.9751 9.81867 17.3332 12.625 17.3332C15.4313 17.3332 17.9226 17.9751 19.6772 18.9621C21.4631 19.9667 22.2916 21.198 22.2916 22.3332C22.2916 24.0769 22.2379 25.0585 21.3269 25.8004C20.8328 26.2027 20.0069 26.5954 18.5933 26.8815C17.184 27.1668 15.2573 27.3332 12.625 27.3332C9.99267 27.3332 8.06596 27.1668 6.6567 26.8815C5.24301 26.5954 4.41713 26.2027 3.92309 25.8004C3.01206 25.0585 2.95831 24.0769 2.95831 22.3332Z" fill="#999999"/>
</svg>
