<svg width="20" height="21" viewBox="0 0 20 21" fill="none" xmlns="http://www.w3.org/2000/svg">
<path fill-rule="evenodd" clip-rule="evenodd" d="M7.50008 1.5415C5.31395 1.5415 3.54175 3.31371 3.54175 5.49984C3.54175 7.68596 5.31395 9.45817 7.50008 9.45817C9.68621 9.45817 11.4584 7.68596 11.4584 5.49984C11.4584 3.31371 9.68621 1.5415 7.50008 1.5415ZM4.79175 5.49984C4.79175 4.00407 6.00431 2.7915 7.50008 2.7915C8.99585 2.7915 10.2084 4.00407 10.2084 5.49984C10.2084 6.99561 8.99585 8.20817 7.50008 8.20817C6.00431 8.20817 4.79175 6.99561 4.79175 5.49984Z" fill="black"/>
<path d="M12.5001 2.37484C12.1549 2.37484 11.8751 2.65466 11.8751 2.99984C11.8751 3.34502 12.1549 3.62484 12.5001 3.62484C13.5356 3.62484 14.3751 4.4643 14.3751 5.49984C14.3751 6.53537 13.5356 7.37484 12.5001 7.37484C12.1549 7.37484 11.8751 7.65466 11.8751 7.99984C11.8751 8.34502 12.1549 8.62484 12.5001 8.62484C14.226 8.62484 15.6251 7.22573 15.6251 5.49984C15.6251 3.77395 14.226 2.37484 12.5001 2.37484Z" fill="black"/>
<path fill-rule="evenodd" clip-rule="evenodd" d="M3.06521 11.7668C4.23135 11.1005 5.80064 10.7082 7.50008 10.7082C9.19953 10.7082 10.7688 11.1005 11.935 11.7668C13.0834 12.4231 13.9584 13.425 13.9584 14.6665C13.9584 15.9081 13.0834 16.9099 11.935 17.5662C10.7688 18.2325 9.19953 18.6248 7.50008 18.6248C5.80064 18.6248 4.23135 18.2325 3.06521 17.5662C1.91675 16.9099 1.04175 15.9081 1.04175 14.6665C1.04175 13.425 1.91675 12.4231 3.06521 11.7668ZM3.68538 12.8521C2.72259 13.4023 2.29175 14.0671 2.29175 14.6665C2.29175 15.2659 2.72259 15.9307 3.68538 16.4809C4.63049 17.0209 5.97787 17.3748 7.50008 17.3748C9.0223 17.3748 10.3697 17.0209 11.3148 16.4809C12.2776 15.9307 12.7084 15.2659 12.7084 14.6665C12.7084 14.0671 12.2776 13.4023 11.3148 12.8521C10.3697 12.3121 9.0223 11.9582 7.50008 11.9582C5.97787 11.9582 4.63049 12.3121 3.68538 12.8521Z" fill="black"/>
<path d="M15.134 11.556C14.7968 11.4821 14.4635 11.6955 14.3896 12.0326C14.3157 12.3698 14.529 12.7031 14.8662 12.777C15.5265 12.9218 16.0542 13.1705 16.4025 13.4555C16.7512 13.7409 16.8751 14.0196 16.8751 14.2498C16.8751 14.4588 16.7746 14.704 16.4975 14.9614C16.2184 15.2207 15.7896 15.4602 15.2366 15.6267C14.906 15.7263 14.7188 16.0749 14.8183 16.4054C14.9178 16.7359 15.2664 16.9232 15.5969 16.8237C16.2824 16.6173 16.8953 16.298 17.3482 15.8772C17.8032 15.4546 18.1251 14.8987 18.1251 14.2498C18.1251 13.5292 17.7299 12.9265 17.1941 12.4881C16.6578 12.0493 15.9355 11.7318 15.134 11.556Z" fill="black"/>
</svg>
