<svg width="24" height="25" viewBox="0 0 24 25" fill="none" xmlns="http://www.w3.org/2000/svg">
<path fill-rule="evenodd" clip-rule="evenodd" d="M5.62436 4.9241C3.96537 5.68243 2.75 7.48614 2.75 9.63701C2.75 11.8344 3.64922 13.5281 4.93829 14.9797C6.00072 16.176 7.28684 17.1675 8.54113 18.1345C8.83904 18.3642 9.13515 18.5925 9.42605 18.8218C9.95208 19.2365 10.4213 19.6004 10.8736 19.8647C11.3261 20.1292 11.6904 20.2499 12 20.2499C12.3096 20.2499 12.6739 20.1292 13.1264 19.8647C13.5787 19.6004 14.0479 19.2365 14.574 18.8218C14.8649 18.5925 15.161 18.3642 15.4589 18.1345C16.7132 17.1675 17.9993 16.176 19.0617 14.9797C20.3508 13.5281 21.25 11.8344 21.25 9.63701C21.25 7.48614 20.0346 5.68243 18.3756 4.9241C16.9023 4.25065 14.9662 4.35585 13.0725 6.01217L14.5302 7.4694C14.8232 7.76224 14.8233 8.23711 14.5304 8.53006C14.2376 8.823 13.7627 8.82309 13.4698 8.53025L11.4698 6.53097L11.4596 6.52065C9.40166 4.38249 7.23607 4.18739 5.62436 4.9241ZM12 4.95873C9.68795 2.89015 7.09896 2.60078 5.00076 3.55987C2.78471 4.57283 1.25 6.92494 1.25 9.63701C1.25 12.3025 2.3605 14.336 3.81672 15.9757C4.98287 17.2888 6.41022 18.3879 7.67083 19.3585C7.95659 19.5785 8.23378 19.792 8.49742 19.9998C9.00965 20.4036 9.55954 20.8342 10.1168 21.1598C10.6739 21.4853 11.3096 21.7499 12 21.7499C12.6904 21.7499 13.3261 21.4853 13.8832 21.1598C14.4405 20.8342 14.9903 20.4036 15.5026 19.9998C15.7662 19.792 16.0434 19.5785 16.3292 19.3585C17.5898 18.3879 19.0171 17.2888 20.1833 15.9757C21.6395 14.336 22.75 12.3025 22.75 9.63701C22.75 6.92494 21.2153 4.57283 18.9992 3.55987C16.901 2.60078 14.3121 2.89015 12 4.95873Z" fill="black"/>
</svg>
