<svg width="24" height="25" viewBox="0 0 24 25" fill="none" xmlns="http://www.w3.org/2000/svg">
<path fill-rule="evenodd" clip-rule="evenodd" d="M16.25 4.25V5.93953L18.25 7.53953V4.25H16.25ZM19.75 8.73953V4C19.75 3.30964 19.1904 2.75 18.5 2.75H16C15.3097 2.75 14.75 3.30964 14.75 4V4.73953L14.3426 4.41362C12.9731 3.31796 11.027 3.31796 9.65742 4.41362L1.53151 10.9143C1.20806 11.1731 1.15562 11.6451 1.41438 11.9685C1.67313 12.292 2.1451 12.3444 2.46855 12.0857L3.25003 11.4605V21.75H2.00003C1.58581 21.75 1.25003 22.0858 1.25003 22.5C1.25003 22.9142 1.58581 23.25 2.00003 23.25H22C22.4142 23.25 22.75 22.9142 22.75 22.5C22.75 22.0858 22.4142 21.75 22 21.75H20.75V11.4605L21.5315 12.0857C21.855 12.3444 22.3269 12.292 22.5857 11.9685C22.8444 11.6451 22.792 11.1731 22.4685 10.9143L19.75 8.73953ZM19.25 10.2605L13.4056 5.58492C12.5838 4.92753 11.4162 4.92753 10.5945 5.58492L4.75003 10.2605V21.75H8.25003L8.25003 17.4506C8.24999 16.7858 8.24996 16.2129 8.31163 15.7542C8.37773 15.2625 8.52679 14.7913 8.90904 14.409C9.29128 14.0268 9.76255 13.8777 10.2542 13.8116C10.7129 13.7499 11.2858 13.75 11.9507 13.75H12.0494C12.7143 13.75 13.2871 13.7499 13.7459 13.8116C14.2375 13.8777 14.7088 14.0268 15.091 14.409C15.4733 14.7913 15.6223 15.2625 15.6884 15.7542C15.7501 16.2129 15.7501 16.7858 15.75 17.4506L15.75 21.75H19.25V10.2605ZM14.25 21.75V17.5C14.25 16.7717 14.2484 16.3009 14.2018 15.954C14.1581 15.6287 14.0875 15.5268 14.0304 15.4697C13.9733 15.4126 13.8713 15.342 13.546 15.2982C13.1991 15.2516 12.7283 15.25 12 15.25C11.2717 15.25 10.8009 15.2516 10.4541 15.2982C10.1288 15.342 10.0268 15.4126 9.9697 15.4697C9.9126 15.5268 9.84199 15.6287 9.79826 15.954C9.75162 16.3009 9.75003 16.7717 9.75003 17.5V21.75H14.25ZM12 8.75C11.3097 8.75 10.75 9.30964 10.75 10C10.75 10.6904 11.3097 11.25 12 11.25C12.6904 11.25 13.25 10.6904 13.25 10C13.25 9.30964 12.6904 8.75 12 8.75ZM9.25003 10C9.25003 8.48122 10.4812 7.25 12 7.25C13.5188 7.25 14.75 8.48122 14.75 10C14.75 11.5188 13.5188 12.75 12 12.75C10.4812 12.75 9.25003 11.5188 9.25003 10Z" fill="black"/>
</svg>
