<svg width="24" height="25" viewBox="0 0 24 25" fill="none" xmlns="http://www.w3.org/2000/svg">
<path fill-rule="evenodd" clip-rule="evenodd" d="M9.44513 1.75H14.5549C15.9225 1.74998 17.0248 1.74996 17.8918 1.86652C18.7919 1.98754 19.5497 2.24643 20.1517 2.84835C20.7536 3.45027 21.0125 4.20814 21.1335 5.10825C21.25 5.97522 21.25 7.07754 21.25 8.44513V11.552C21.25 12.4505 21.2501 13.1997 21.1701 13.7945C21.0857 14.4223 20.9 14.9891 20.4445 15.4445C19.9891 15.9 19.4223 16.0857 18.7945 16.1701C18.1997 16.2501 17.4505 16.25 16.552 16.25H7.44801C6.54952 16.25 5.8003 16.2501 5.20552 16.1701C4.57773 16.0857 4.01093 15.9 3.55546 15.4445C3.09999 14.9891 2.91432 14.4223 2.82991 13.7945C2.74995 13.1997 2.74997 12.4505 2.75 11.552L2.75 8.44513C2.74998 7.07754 2.74996 5.97522 2.86652 5.10825C2.98754 4.20814 3.24643 3.45027 3.84835 2.84835C4.45027 2.24643 5.20814 1.98754 6.10825 1.86652C6.97522 1.74996 8.07754 1.74998 9.44513 1.75ZM6.30812 3.35315C5.57434 3.4518 5.18577 3.63225 4.90901 3.90901C4.63225 4.18577 4.4518 4.57435 4.35315 5.30812C4.25159 6.06347 4.25 7.06458 4.25 8.5V11.5C4.25 12.464 4.25159 13.1116 4.31654 13.5946C4.37858 14.0561 4.4858 14.2536 4.61612 14.3839C4.74643 14.5142 4.94393 14.6214 5.40539 14.6835C5.88843 14.7484 6.53599 14.75 7.5 14.75H16.5C17.464 14.75 18.1116 14.7484 18.5946 14.6835C19.0561 14.6214 19.2536 14.5142 19.3839 14.3839C19.5142 14.2536 19.6214 14.0561 19.6835 13.5946C19.7484 13.1116 19.75 12.464 19.75 11.5V8.5C19.75 7.06459 19.7484 6.06347 19.6469 5.30812C19.5482 4.57435 19.3678 4.18577 19.091 3.90901C18.8142 3.63225 18.4257 3.4518 17.6919 3.35315C16.9365 3.25159 15.9354 3.25 14.5 3.25H9.5C8.06458 3.25 7.06347 3.25159 6.30812 3.35315ZM3 18.25C2.86193 18.25 2.75 18.3619 2.75 18.5V19.5C2.75 20.7426 3.75736 21.75 5 21.75H19C20.2426 21.75 21.25 20.7426 21.25 19.5V18.5C21.25 18.3619 21.1381 18.25 21 18.25H16.6667C16.3962 18.25 16.133 18.3377 15.9167 18.5L14.9833 19.2C14.5073 19.557 13.9284 19.75 13.3333 19.75H10.6667C10.0716 19.75 9.49268 19.557 9.01667 19.2L8.08333 18.5C7.86696 18.3377 7.6038 18.25 7.33333 18.25H3ZM1.25 18.5C1.25 17.5335 2.0335 16.75 3 16.75H7.33333C7.92835 16.75 8.50732 16.943 8.98333 17.3L9.91667 18C10.133 18.1623 10.3962 18.25 10.6667 18.25H13.3333C13.6038 18.25 13.867 18.1623 14.0833 18L15.0167 17.3C15.4927 16.943 16.0716 16.75 16.6667 16.75H21C21.9665 16.75 22.75 17.5335 22.75 18.5V19.5C22.75 21.5711 21.0711 23.25 19 23.25H5C2.92893 23.25 1.25 21.5711 1.25 19.5V18.5Z" fill="black"/>
</svg>
