<svg width="20" height="20" viewBox="0 0 20 20" fill="none" xmlns="http://www.w3.org/2000/svg">
<path fill-rule="evenodd" clip-rule="evenodd" d="M9.58341 2.29199C5.55634 2.29199 2.29175 5.55658 2.29175 9.58366C2.29175 13.6107 5.55634 16.8753 9.58341 16.8753C13.6105 16.8753 16.8751 13.6107 16.8751 9.58366C16.8751 5.55658 13.6105 2.29199 9.58341 2.29199ZM1.04175 9.58366C1.04175 4.86623 4.86598 1.04199 9.58341 1.04199C14.3008 1.04199 18.1251 4.86623 18.1251 9.58366C18.1251 11.7174 17.3427 13.6684 16.0491 15.1655L18.7754 17.8917C19.0194 18.1358 19.0194 18.5315 18.7754 18.7756C18.5313 19.0197 18.1356 19.0197 17.8915 18.7756L15.1653 16.0494C13.6682 17.3429 11.7172 18.1253 9.58341 18.1253C4.86598 18.1253 1.04175 14.3011 1.04175 9.58366Z" fill="black"/>
</svg>
