<svg width="24" height="25" viewBox="0 0 24 25" fill="none" xmlns="http://www.w3.org/2000/svg">
<path fill-rule="evenodd" clip-rule="evenodd" d="M12.0002 3.25C11.0337 3.25 10.2502 4.0335 10.2502 5C10.2502 5.9665 11.0337 6.75 12.0002 6.75C12.9667 6.75 13.7502 5.9665 13.7502 5C13.7502 4.0335 12.9667 3.25 12.0002 3.25ZM8.75016 5C8.75016 3.20507 10.2052 1.75 12.0002 1.75C13.7951 1.75 15.2502 3.20507 15.2502 5C15.2502 6.79493 13.7951 8.25 12.0002 8.25C10.2052 8.25 8.75016 6.79493 8.75016 5ZM12.8689 10.3221C12.2983 10.226 11.702 10.226 11.1314 10.3221C8.62372 10.7445 6.75016 12.9461 6.75016 15.5196C6.75016 16.0842 6.43448 16.6049 5.92728 16.8612L3.33841 18.1694C2.96871 18.3562 2.51757 18.2079 2.33077 17.8382C2.14396 17.4685 2.29222 17.0174 2.66192 16.8306L5.24941 15.5231C5.2498 15.5224 5.25016 15.5213 5.25016 15.5196C5.25016 12.2143 7.65199 9.38701 10.8823 8.84292C11.6178 8.71903 12.3825 8.71903 13.1181 8.84292C16.3483 9.38701 18.7502 12.2143 18.7502 15.5196C18.7502 15.5213 18.7505 15.5224 18.7509 15.5231L21.3384 16.8306C21.7081 17.0174 21.8564 17.4685 21.6696 17.8382C21.4827 18.2079 21.0316 18.3562 20.6619 18.1694L18.073 16.8612C17.5658 16.6049 17.2502 16.0842 17.2502 15.5196C17.2502 12.9461 15.3766 10.7445 12.8689 10.3221ZM9.95016 15.9C10.2815 16.1485 10.3487 16.6186 10.1002 16.95L9.05382 18.3451C9.02652 18.3815 9.00508 18.4101 8.98291 18.4381C8.6212 18.8954 8.12354 19.2258 7.56179 19.3817C7.52737 19.3913 7.49265 19.4 7.44854 19.411L7.44108 19.4129L5.95629 19.784C5.24744 19.9613 4.75016 20.5982 4.75016 21.3288C4.75016 21.5614 4.93872 21.75 5.17133 21.75H6.72743C7.34385 21.75 7.59247 21.7488 7.82961 21.7209C8.40779 21.653 8.96585 21.467 9.46917 21.1744C9.67561 21.0544 9.87522 20.9062 10.3683 20.5364L10.5502 20.4L12.5502 18.9C12.8815 18.6515 13.3516 18.7186 13.6002 19.05C13.8487 19.3814 13.7815 19.8515 13.4502 20.1L12.5455 20.7785L13.8032 21.2501C14.4299 21.4851 14.6827 21.5784 14.9397 21.6385C15.0782 21.6709 15.2182 21.6963 15.3593 21.7146C15.621 21.7486 15.8905 21.75 16.5598 21.75H18.829C19.0616 21.75 19.2502 21.5614 19.2502 21.3288C19.2502 20.5982 18.7529 19.9613 18.044 19.784L16.5514 19.4109C16.5074 19.3999 16.4729 19.3913 16.4385 19.3817C15.8768 19.2258 15.3791 18.8954 15.0174 18.4381C14.9953 18.4102 14.9737 18.3814 14.9465 18.3451L14.9419 18.339L13.9002 16.95C13.6516 16.6186 13.7188 16.1485 14.0502 15.9C14.3815 15.6515 14.8516 15.7186 15.1002 16.05L16.1419 17.439C16.1759 17.4843 16.1852 17.4966 16.1938 17.5075C16.3582 17.7153 16.5844 17.8655 16.8398 17.9364C16.8531 17.9401 16.8679 17.9439 16.923 17.9576L18.4078 18.3288C19.7844 18.673 20.7502 19.9099 20.7502 21.3288C20.7502 22.3899 19.89 23.25 18.829 23.25L16.5081 23.25C15.9063 23.25 15.5354 23.2501 15.1661 23.2021C14.9752 23.1773 14.7857 23.1429 14.5983 23.0991C14.2356 23.0144 13.8884 22.8841 13.3249 22.6728L11.1215 21.8465C10.741 22.1316 10.4899 22.3161 10.2229 22.4713C9.54197 22.8671 8.78696 23.1187 8.00471 23.2107C7.6698 23.2501 7.3291 23.25 6.77561 23.25H5.17133C4.1103 23.25 3.25016 22.3899 3.25016 21.3288C3.25016 19.9099 4.21589 18.673 5.59249 18.3288L7.07728 17.9576C7.13237 17.9439 7.14719 17.9401 7.16057 17.9364C7.41591 17.8655 7.64211 17.7153 7.80653 17.5075C7.81514 17.4966 7.82435 17.4844 7.85843 17.439L8.90016 16.05C9.14869 15.7186 9.61879 15.6515 9.95016 15.9Z" fill="black"/>
</svg>
