<svg width="24" height="25" viewBox="0 0 24 25" fill="none" xmlns="http://www.w3.org/2000/svg">
<path fill-rule="evenodd" clip-rule="evenodd" d="M12 3.25C6.89321 3.25 2.75 7.40121 2.75 12.5261C2.75 17.2885 6.32861 21.2112 10.9326 21.7412C11.395 21.7944 11.89 21.6004 12.2858 21.2036C12.6473 20.8412 12.6473 20.2528 12.2858 19.8904C11.9739 19.5776 11.6611 19.1609 11.4899 18.6872C11.3146 18.202 11.2713 17.5933 11.627 17.0276C11.9499 16.514 12.4341 16.239 12.9421 16.1053C13.4313 15.9766 13.9734 15.9693 14.494 16.0009C14.978 16.0303 15.4991 16.0978 16.0045 16.1633C16.0471 16.1689 16.0896 16.1744 16.132 16.1798C16.6889 16.2517 17.2328 16.3188 17.7581 16.3439C18.8324 16.3954 19.6599 16.26 20.2254 15.7976C20.7667 15.3552 21.25 14.4568 21.25 12.5261C21.25 7.40121 17.1068 3.25 12 3.25ZM1.25 12.5261C1.25 6.57647 6.0611 1.75 12 1.75C17.9389 1.75 22.75 6.57647 22.75 12.5261C22.75 14.6713 22.2132 16.1101 21.1748 16.959C20.1608 17.7879 18.8495 17.898 17.6863 17.8422C17.0929 17.8138 16.4934 17.739 15.9399 17.6675C15.901 17.6625 15.8625 17.6575 15.8241 17.6525C15.3046 17.5853 14.8335 17.5243 14.4032 17.4982C13.937 17.4699 13.5828 17.4878 13.3239 17.5559C13.0837 17.6191 12.968 17.7127 12.8968 17.826C12.858 17.8877 12.8307 17.9837 12.9007 18.1775C12.9749 18.3829 13.1368 18.6195 13.3478 18.8311C14.2933 19.779 14.2933 21.315 13.3478 22.2629C12.6976 22.9148 11.7682 23.3473 10.761 23.2314C5.40565 22.6148 1.25 18.0562 1.25 12.5261ZM9.585 6.74977C9.17079 6.74977 8.835 7.08556 8.835 7.49977C8.835 7.91399 9.17079 8.24977 9.585 8.24977C9.99922 8.24977 10.335 7.91399 10.335 7.49977C10.335 7.08556 9.99922 6.74977 9.585 6.74977ZM7.335 7.49977C7.335 6.25713 8.34236 5.24977 9.585 5.24977C10.8276 5.24977 11.835 6.25713 11.835 7.49977C11.835 8.74241 10.8276 9.74977 9.585 9.74977C8.34236 9.74977 7.335 8.74241 7.335 7.49977ZM14.5 6.75C14.0858 6.75 13.75 7.08579 13.75 7.5C13.75 7.91421 14.0858 8.25 14.5 8.25C14.9142 8.25 15.25 7.91421 15.25 7.5C15.25 7.08579 14.9142 6.75 14.5 6.75ZM12.25 7.5C12.25 6.25736 13.2574 5.25 14.5 5.25C15.7426 5.25 16.75 6.25736 16.75 7.5C16.75 8.74264 15.7426 9.75 14.5 9.75C13.2574 9.75 12.25 8.74264 12.25 7.5ZM6.5 11.25C6.08579 11.25 5.75 11.5858 5.75 12C5.75 12.4142 6.08579 12.75 6.5 12.75C6.91421 12.75 7.25 12.4142 7.25 12C7.25 11.5858 6.91421 11.25 6.5 11.25ZM4.25 12C4.25 10.7574 5.25736 9.75 6.5 9.75C7.74264 9.75 8.75 10.7574 8.75 12C8.75 13.2426 7.74264 14.25 6.5 14.25C5.25736 14.25 4.25 13.2426 4.25 12ZM17.5 11.25C17.0858 11.25 16.75 11.5858 16.75 12C16.75 12.4142 17.0858 12.75 17.5 12.75C17.9142 12.75 18.25 12.4142 18.25 12C18.25 11.5858 17.9142 11.25 17.5 11.25ZM15.25 12C15.25 10.7574 16.2574 9.75 17.5 9.75C18.7426 9.75 19.75 10.7574 19.75 12C19.75 13.2426 18.7426 14.25 17.5 14.25C16.2574 14.25 15.25 13.2426 15.25 12Z" fill="black"/>
</svg>
