<svg width="24" height="25" viewBox="0 0 24 25" fill="none" xmlns="http://www.w3.org/2000/svg">
<path fill-rule="evenodd" clip-rule="evenodd" d="M14.7566 3.12145C16.5852 1.29285 19.55 1.29285 21.3786 3.12145C23.2072 4.95005 23.2072 7.91479 21.3786 9.74339L11.8933 19.2287C11.3514 19.7706 11.0323 20.0897 10.6774 20.3665C10.2592 20.6927 9.80655 20.9725 9.32766 21.2007C8.92136 21.3943 8.49334 21.537 7.76623 21.7793L4.43511 22.8897L3.63303 23.1571C2.98247 23.3739 2.26522 23.2046 1.78032 22.7197C1.29542 22.2348 1.1261 21.5175 1.34296 20.867L2.72068 16.7338C2.96303 16.0067 3.10568 15.5787 3.29932 15.1724C3.52755 14.6935 3.80727 14.2409 4.13354 13.8226C4.41035 13.4677 4.72939 13.1487 5.27137 12.6067L14.7566 3.12145ZM4.40051 21.3201L7.24203 20.3729C8.03314 20.1092 8.36927 19.9958 8.68233 19.8466C9.06287 19.6653 9.42252 19.443 9.75492 19.1837C10.0284 18.9704 10.2801 18.7205 10.8698 18.1308L18.4393 10.5614C17.6506 10.2832 16.6346 9.76763 15.6835 8.81651C14.7324 7.86538 14.2168 6.84939 13.9387 6.06075L6.36917 13.6302C5.77951 14.2199 5.52959 14.4716 5.3163 14.7451C5.05704 15.0775 4.83476 15.4371 4.65341 15.8177C4.50421 16.1307 4.3908 16.4669 4.12709 17.258L3.17992 20.0995L4.40051 21.3201ZM15.1554 4.84404C15.1896 5.019 15.2474 5.25684 15.3438 5.53487C15.561 6.16083 15.9712 6.98288 16.7442 7.75585C17.5171 8.52881 18.3392 8.93903 18.9651 9.1562C19.2432 9.25266 19.481 9.31046 19.656 9.34466L20.3179 8.68272C21.5607 7.43991 21.5607 5.42492 20.3179 4.18211C19.0751 2.9393 17.0601 2.9393 15.8173 4.18211L15.1554 4.84404Z" fill="black"/>
</svg>
