<svg width="22" height="22" viewBox="0 0 22 22" fill="none" xmlns="http://www.w3.org/2000/svg">
<path fill-rule="evenodd" clip-rule="evenodd" d="M10.9426 0.25H11.0574C13.3658 0.249987 15.1748 0.249977 16.5863 0.439747C18.031 0.633986 19.1711 1.03933 20.0659 1.93414C20.9607 2.82895 21.366 3.96897 21.5603 5.41371C21.75 6.82519 21.75 8.63423 21.75 10.9426V11.0574C21.75 13.3658 21.75 15.1748 21.5603 16.5863C21.366 18.031 20.9607 19.1711 20.0659 20.0659C19.1711 20.9607 18.031 21.366 16.5863 21.5603C15.1748 21.75 13.3658 21.75 11.0574 21.75H10.9426C8.63423 21.75 6.82519 21.75 5.41371 21.5603C3.96897 21.366 2.82895 20.9607 1.93414 20.0659C1.03933 19.1711 0.633986 18.031 0.439747 16.5863C0.249977 15.1748 0.249987 13.3658 0.25 11.0574V10.9426C0.249987 8.63423 0.249977 6.82519 0.439747 5.41371C0.633986 3.96897 1.03933 2.82895 1.93414 1.93414C2.82895 1.03933 3.96897 0.633986 5.41371 0.439747C6.82519 0.249977 8.63423 0.249987 10.9426 0.25ZM5.61358 1.92637C4.33517 2.09825 3.56445 2.42514 2.9948 2.9948C2.42514 3.56445 2.09825 4.33517 1.92637 5.61358C1.75159 6.91356 1.75 8.62177 1.75 11C1.75 13.3782 1.75159 15.0864 1.92637 16.3864C2.09825 17.6648 2.42514 18.4355 2.9948 19.0052C3.56445 19.5749 4.33517 19.9018 5.61358 20.0736C6.91356 20.2484 8.62177 20.25 11 20.25C13.3782 20.25 15.0864 20.2484 16.3864 20.0736C17.6648 19.9018 18.4355 19.5749 19.0052 19.0052C19.5749 18.4355 19.9018 17.6648 20.0736 16.3864C20.2484 15.0864 20.25 13.3782 20.25 11C20.25 8.62177 20.2484 6.91356 20.0736 5.61358C19.9018 4.33517 19.5749 3.56445 19.0052 2.9948C18.4355 2.42514 17.6648 2.09825 16.3864 1.92637C15.0864 1.75159 13.3782 1.75 11 1.75C8.62177 1.75 6.91356 1.75159 5.61358 1.92637ZM13.2084 5.75C11.5257 5.75 10.1669 7.10771 10.1669 8.77606C10.1669 9.14695 10.2521 9.47391 10.3403 9.71112C10.3839 9.82845 10.4268 9.9198 10.4569 9.97865C10.4718 10.0079 10.4834 10.0288 10.49 10.0404L10.4956 10.0499C10.6803 10.3443 10.6366 10.7274 10.3904 10.9726L5.80189 15.5424C5.80189 15.5424 5.79792 15.5464 5.79128 15.5551C5.78483 15.5637 5.77786 15.5741 5.77139 15.5857C5.75762 15.6104 5.75208 15.6294 5.7505 15.6391L5.7501 15.642L5.7511 15.6443C5.75217 15.6466 5.75413 15.6504 5.75747 15.6557C5.76405 15.6662 5.77721 15.6844 5.80189 15.709L6.30045 16.2055L6.30368 16.2076C6.31321 16.2139 6.32491 16.2207 6.33798 16.2271C6.36576 16.2407 6.38874 16.2472 6.40293 16.2493C6.40657 16.2464 6.41235 16.2422 6.41871 16.2358L7.03594 15.6211C7.32859 15.3297 7.80179 15.3297 8.09443 15.6211C8.17078 15.6972 8.2267 15.7215 8.25568 15.7303C8.28541 15.7394 8.31524 15.7409 8.34995 15.7343C8.3877 15.727 8.43107 15.7098 8.47361 15.6824C8.5121 15.6577 8.53725 15.6327 8.549 15.6188C8.58417 15.5663 8.58593 15.5279 8.56237 15.4576C8.54799 15.4146 8.52645 15.3739 8.50688 15.3431C8.49771 15.3287 8.49059 15.319 8.48762 15.315M10.0441 15.8688C10.0014 16.0748 9.91397 16.2897 9.7618 16.5018L9.75671 16.5089L9.75146 16.5159C9.51686 16.8274 9.11662 17.1147 8.63211 17.2075C8.31794 17.2677 7.98553 17.2421 7.66594 17.1107L7.4772 17.2987C7.07777 17.6965 6.59637 17.7941 6.1836 17.7331C5.80814 17.6776 5.50086 17.4966 5.31475 17.3377C5.30016 17.3252 5.28605 17.3122 5.27245 17.2987L4.7434 16.7718C4.32319 16.3533 4.19555 15.8535 4.27014 15.3971C4.33706 14.9878 4.55556 14.6666 4.7434 14.4795L8.95412 10.286C8.94754 10.269 8.94095 10.2517 8.93437 10.234C8.80215 9.87843 8.6669 9.37114 8.6669 8.77606C8.6669 6.27349 10.7031 4.25 13.2084 4.25C15.7138 4.25 17.75 6.27349 17.75 8.77606C17.75 11.2786 15.7138 13.3021 13.2084 13.3021C12.9722 13.3021 12.6078 13.2761 12.2342 13.1987C12.0881 13.1685 11.9211 13.1266 11.7503 13.0668C11.7705 13.0997 11.7953 13.1424 11.8217 13.194C11.8763 13.3006 11.9423 13.4534 11.987 13.6401C12.0788 14.0243 12.0799 14.5694 11.7017 15.0968L11.6966 15.1039L11.6913 15.1109C11.4778 15.3944 11.0768 15.7396 10.5244 15.8444C10.3659 15.8745 10.2052 15.8829 10.0441 15.8688ZM8.48762 15.315C8.23996 15.0172 8.25947 14.5782 8.53493 14.3039L8.71128 14.1283C9.00392 13.8368 9.47712 13.8368 9.76977 14.1283C9.91681 14.2747 10.0285 14.3328 10.096 14.3563C10.1602 14.3786 10.2071 14.3779 10.2448 14.3707C10.3374 14.3531 10.4355 14.2811 10.488 14.2151C10.5454 14.1312 10.5459 14.0635 10.5281 13.9889C10.5176 13.9451 10.501 13.9057 10.4867 13.8779C10.4815 13.8678 10.4773 13.8605 10.4749 13.8565L10.4484 13.8195L10.4219 13.7668C10.4203 13.7642 10.4126 13.753 10.3863 13.7239L10.3843 13.7219C10.367 13.704 10.239 13.572 10.1617 13.4334C10.0318 13.2005 9.99601 12.9151 10.1081 12.6272C10.193 12.4092 10.3465 12.2363 10.4748 12.1085L11.0039 11.5816C11.2779 11.3087 11.7145 11.2889 12.0121 11.5359C12.0788 11.5913 12.2534 11.6709 12.5382 11.7299C12.801 11.7843 13.0626 11.8021 13.2084 11.8021C14.8911 11.8021 16.25 10.4444 16.25 8.77606C16.25 7.10771 14.8911 5.75 13.2084 5.75M13.2084 8.20883C12.8893 8.20883 12.6358 8.46568 12.6358 8.77606C12.6358 9.08644 12.8893 9.34329 13.2084 9.34329C13.5276 9.34329 13.7811 9.08644 13.7811 8.77606C13.7811 8.46568 13.5276 8.20883 13.2084 8.20883ZM11.1358 8.77606C11.1358 7.63147 12.0667 6.70883 13.2084 6.70883C14.3502 6.70883 15.2811 7.63147 15.2811 8.77606C15.2811 9.92065 14.3502 10.8433 13.2084 10.8433C12.0667 10.8433 11.1358 9.92065 11.1358 8.77606Z" fill="white"/>
</svg>
