<svg width="40" height="40" viewBox="0 0 40 40" fill="none" xmlns="http://www.w3.org/2000/svg">
<rect width="40" height="40" rx="20" fill="#1284EF"/>
<path d="M19.1249 8.33325C19.1249 7.85 19.5167 7.45825 19.9999 7.45825C26.9265 7.45825 32.5416 13.0733 32.5416 19.9999C32.5416 26.9265 26.9265 32.5416 19.9999 32.5416C13.0733 32.5416 7.45825 26.9265 7.45825 19.9999C7.45825 16.4917 8.89983 13.3186 11.2207 11.0434C11.5658 10.7051 12.1198 10.7106 12.4581 11.0557C12.7964 11.4008 12.7909 11.9548 12.4458 12.2931C10.4468 14.2527 9.20825 16.9809 9.20825 19.9999C9.20825 25.96 14.0398 30.7916 19.9999 30.7916C25.96 30.7916 30.7916 25.96 30.7916 19.9999C30.7916 14.0398 25.96 9.20825 19.9999 9.20825C19.5167 9.20825 19.1249 8.8165 19.1249 8.33325Z" fill="white"/>
<path d="M19.1249 11.8333C19.1249 11.35 19.5167 10.9583 19.9999 10.9583C24.9935 10.9583 29.0416 15.0063 29.0416 19.9999C29.0416 24.9935 24.9935 29.0416 19.9999 29.0416C15.0063 29.0416 10.9583 24.9935 10.9583 19.9999C10.9583 19.5167 11.35 19.1249 11.8333 19.1249C12.3165 19.1249 12.7083 19.5167 12.7083 19.9999C12.7083 24.027 15.9728 27.2916 19.9999 27.2916C24.027 27.2916 27.2916 24.027 27.2916 19.9999C27.2916 15.9728 24.027 12.7083 19.9999 12.7083C19.5167 12.7083 19.1249 12.3165 19.1249 11.8333Z" fill="white"/>
<path d="M19.9999 14.4583C19.5167 14.4583 19.1249 14.85 19.1249 15.3333C19.1249 15.8165 19.5167 16.2083 19.9999 16.2083C22.094 16.2083 23.7916 17.9058 23.7916 19.9999C23.7916 22.094 22.094 23.7916 19.9999 23.7916C19.5167 23.7916 19.1249 24.1833 19.1249 24.6666C19.1249 25.1498 19.5167 25.5416 19.9999 25.5416C23.0605 25.5416 25.5416 23.0605 25.5416 19.9999C25.5416 16.9393 23.0605 14.4583 19.9999 14.4583Z" fill="white"/>
</svg>
