<svg width="40" height="40" viewBox="0 0 40 40" fill="none" xmlns="http://www.w3.org/2000/svg">
<rect width="40" height="40" rx="20" fill="#1284EF"/>
<path fill-rule="evenodd" clip-rule="evenodd" d="M14.4583 12.9999C14.4583 9.93934 16.9393 7.45825 19.9999 7.45825C23.0605 7.45825 25.5416 9.93934 25.5416 12.9999C25.5416 16.0605 23.0605 18.5416 19.9999 18.5416C16.9393 18.5416 14.4583 16.0605 14.4583 12.9999ZM19.9999 9.20825C17.9058 9.20825 16.2083 10.9058 16.2083 12.9999C16.2083 15.094 17.9058 16.7916 19.9999 16.7916C22.094 16.7916 23.7916 15.094 23.7916 12.9999C23.7916 10.9058 22.094 9.20825 19.9999 9.20825Z" fill="white"/>
<path d="M26.7083 25.4444C26.7083 24.9611 26.3165 24.5694 25.8333 24.5694C25.35 24.5694 24.9583 24.9611 24.9583 25.4444V26.1249H24.2775C23.7943 26.1249 23.4025 26.5167 23.4025 26.9999C23.4025 27.4832 23.7943 27.8749 24.2775 27.8749H24.9583V28.5555C24.9583 29.0387 25.35 29.4305 25.8333 29.4305C26.3165 29.4305 26.7083 29.0387 26.7083 28.5555V27.8749H27.3886C27.8719 27.8749 28.2636 27.4832 28.2636 26.9999C28.2636 26.5167 27.8719 26.1249 27.3886 26.1249H26.7083V25.4444Z" fill="white"/>
<path fill-rule="evenodd" clip-rule="evenodd" d="M25.6136 21.4625C25.6865 21.4597 25.7597 21.4583 25.8333 21.4583C28.8938 21.4583 31.3749 23.9393 31.3749 26.9999C31.3749 30.0605 28.8938 32.5416 25.8333 32.5416C24.4571 32.5416 23.1981 32.04 22.2291 31.2096C21.5155 31.3177 20.7684 31.3749 19.9999 31.3749C17.6207 31.3749 15.4237 30.8257 13.7911 29.8928C12.1832 28.974 10.9583 27.5714 10.9583 25.8333C10.9583 24.0951 12.1832 22.6925 13.7911 21.7737C15.4237 20.8408 17.6207 20.2916 19.9999 20.2916C22.1051 20.2916 24.0629 20.7213 25.6136 21.4625ZM25.8333 23.2083C23.7392 23.2083 22.0416 24.9058 22.0416 26.9999C22.0416 29.094 23.7392 30.7916 25.8333 30.7916C27.9273 30.7916 29.6249 29.094 29.6249 26.9999C29.6249 24.9058 27.9273 23.2083 25.8333 23.2083ZM20.9343 29.5927C20.524 28.8191 20.2916 27.9366 20.2916 26.9999C20.2916 25.0503 21.2984 23.3358 22.8204 22.348C21.9561 22.1518 21.0045 22.0416 19.9999 22.0416C17.8688 22.0416 15.9825 22.537 14.6593 23.2931C13.3114 24.0634 12.7083 24.9941 12.7083 25.8333C12.7083 26.6724 13.3114 27.6031 14.6593 28.3734C15.9825 29.1295 17.8688 29.6249 19.9999 29.6249C20.3167 29.6249 20.6285 29.614 20.9343 29.5927Z" fill="white"/>
</svg>
