<svg width="25" height="24" viewBox="0 0 25 24" fill="none" xmlns="http://www.w3.org/2000/svg">
<path fill-rule="evenodd" clip-rule="evenodd" d="M13.1206 2.76232C12.9868 2.75064 12.8532 2.75 12.5 2.75C10.1218 2.75 8.41356 2.7516 7.11358 2.92637C5.83517 3.09825 5.06445 3.42514 4.4948 3.9948C3.92514 4.56446 3.59825 5.33518 3.42637 6.61358C3.25159 7.91356 3.25 9.62178 3.25 12C3.25 14.3782 3.25159 16.0864 3.42637 17.3864C3.59825 18.6648 3.92514 19.4355 4.4948 20.0052C5.00829 20.5187 5.68517 20.8349 6.75 21.0182L6.75 20.948C6.74997 20.0495 6.74995 19.3003 6.82991 18.7055C6.91432 18.0777 7.09999 17.5109 7.55546 17.0555C8.01093 16.6 8.57773 16.4143 9.20552 16.3299C9.8003 16.2499 10.5495 16.25 11.448 16.25H13.552C14.4505 16.25 15.1997 16.2499 15.7945 16.3299C16.4223 16.4143 16.9891 16.6 17.4445 17.0555C17.9 17.5109 18.0857 18.0777 18.1701 18.7055C18.2501 19.3003 18.25 20.0495 18.25 20.948L18.25 21.0182C19.3148 20.8349 19.9917 20.5187 20.5052 20.0052C21.0749 19.4355 21.4018 18.6648 21.5736 17.3864C21.7484 16.0864 21.75 14.3782 21.75 12C21.75 11.6468 21.7494 11.5132 21.7377 11.3794C21.6804 10.7235 21.4125 10.0768 20.9892 9.57254C20.903 9.46978 20.8063 9.37221 20.5502 9.11611L15.3839 3.94977C15.1278 3.69368 15.0302 3.59701 14.9275 3.51076C14.4232 3.08746 13.7765 2.81957 13.1206 2.76232ZM16.75 21.18V21C16.75 20.036 16.7484 19.3884 16.6835 18.9054C16.6214 18.4439 16.5142 18.2464 16.3839 18.1161C16.2536 17.9858 16.0561 17.8786 15.5946 17.8165C15.1116 17.7516 14.464 17.75 13.5 17.75H11.5C10.536 17.75 9.88843 17.7516 9.40539 17.8165C8.94393 17.8786 8.74643 17.9858 8.61612 18.1161C8.4858 18.2464 8.37858 18.4439 8.31654 18.9054C8.25159 19.3884 8.25 20.036 8.25 21V21.18C9.37584 21.2491 10.7582 21.25 12.5 21.25C14.2418 21.25 15.6242 21.2491 16.75 21.18ZM12.5315 1.25C12.8431 1.24998 13.0445 1.24997 13.251 1.268C14.2138 1.35204 15.1517 1.74054 15.8919 2.36187C16.0507 2.49517 16.196 2.64055 16.4213 2.86587L16.4446 2.88911L21.6341 8.07862C21.8594 8.30396 22.0048 8.44933 22.1381 8.60814C22.7595 9.34833 23.148 10.2862 23.232 11.249C23.25 11.4555 23.25 11.6569 23.25 11.9684V12.0574C23.25 14.3658 23.25 16.1748 23.0603 17.5863C22.866 19.031 22.4607 20.1711 21.5659 21.0659C20.6711 21.9607 19.531 22.366 18.0863 22.5603C16.6748 22.75 14.8658 22.75 12.5574 22.75H12.4426C10.1342 22.75 8.32519 22.75 6.91371 22.5603C5.46897 22.366 4.32895 21.9607 3.43414 21.0659C2.53933 20.1711 2.13399 19.031 1.93975 17.5863C1.74998 16.1748 1.74999 14.3658 1.75 12.0574V11.9426C1.74999 9.63423 1.74998 7.82519 1.93975 6.41371C2.13399 4.96897 2.53933 3.82895 3.43414 2.93414C4.32895 2.03933 5.46897 1.63399 6.91371 1.43975C8.32519 1.24998 10.1342 1.24999 12.4426 1.25L12.5315 1.25ZM6.75 8C6.75 7.58579 7.08579 7.25 7.5 7.25H13.5C13.9142 7.25 14.25 7.58579 14.25 8C14.25 8.41422 13.9142 8.75 13.5 8.75H7.5C7.08579 8.75 6.75 8.41422 6.75 8Z" fill="white"/>
</svg>
