<svg width="56" height="56" viewBox="0 0 56 56" fill="none" xmlns="http://www.w3.org/2000/svg">
<path fill-rule="evenodd" clip-rule="evenodd" d="M27.3334 15.667C20.8901 15.667 15.6667 20.8903 15.6667 27.3337C15.6667 33.777 20.8901 39.0003 27.3334 39.0003C33.7767 39.0003 39.0001 33.777 39.0001 27.3337C39.0001 20.8903 33.7767 15.667 27.3334 15.667ZM13.6667 27.3337C13.6667 19.7858 19.7855 13.667 27.3334 13.667C34.8813 13.667 41.0001 19.7858 41.0001 27.3337C41.0001 30.7477 39.7483 33.8693 37.6786 36.2646L42.0405 40.6265C42.431 41.0171 42.431 41.6502 42.0405 42.0408C41.65 42.4313 41.0168 42.4313 40.6263 42.0408L36.2644 37.6788C33.8691 39.7485 30.7474 41.0003 27.3334 41.0003C19.7855 41.0003 13.6667 34.8815 13.6667 27.3337Z" fill="black"/>
</svg>
