<svg width="28" height="30" viewBox="0 0 28 30" fill="none" xmlns="http://www.w3.org/2000/svg">
<path fill-rule="evenodd" clip-rule="evenodd" d="M14.125 9.99984C11.3636 9.99984 9.12504 12.2384 9.12504 14.9998C9.12504 17.7613 11.3636 19.9998 14.125 19.9998C16.8865 19.9998 19.125 17.7613 19.125 14.9998C19.125 12.2384 16.8865 9.99984 14.125 9.99984ZM11.125 14.9998C11.125 13.343 12.4682 11.9998 14.125 11.9998C15.7819 11.9998 17.125 13.343 17.125 14.9998C17.125 16.6567 15.7819 17.9998 14.125 17.9998C12.4682 17.9998 11.125 16.6567 11.125 14.9998Z" fill="#999999"/>
<path fill-rule="evenodd" clip-rule="evenodd" d="M14.0914 0.666504C13.4987 0.666494 13.004 0.666486 12.5979 0.694198C12.1751 0.723045 11.7757 0.785236 11.3885 0.945613C10.4901 1.31776 9.77628 2.03156 9.40414 2.93C9.2104 3.39773 9.15793 3.89066 9.13789 4.42646C9.12179 4.85716 8.90442 5.21652 8.58364 5.40172C8.26286 5.58692 7.84297 5.59548 7.46193 5.39408C6.98789 5.14353 6.53476 4.9425 6.03282 4.87641C5.06868 4.74948 4.0936 5.01075 3.3221 5.60275C2.98961 5.85787 2.73607 6.17264 2.49969 6.52437C2.27261 6.86225 2.02526 7.2907 1.72896 7.80392L1.69529 7.86225C1.39897 8.37546 1.15161 8.80389 0.972535 9.16948C0.786118 9.55006 0.640293 9.92702 0.585591 10.3425C0.458659 11.3067 0.71993 12.2817 1.31193 13.0532C1.62008 13.4548 2.02068 13.7467 2.4746 14.0319C2.83964 14.2613 3.04221 14.6293 3.04219 14.9998C3.04217 15.3703 2.8396 15.7382 2.47461 15.9676C2.02063 16.2528 1.61998 16.5447 1.3118 16.9463C0.7198 17.7178 0.458529 18.6929 0.58546 19.6571C0.640162 20.0726 0.785987 20.4495 0.972405 20.8301C1.15148 21.1957 1.39884 21.6241 1.69515 22.1373L1.72883 22.1957C2.02513 22.7089 2.27248 23.1373 2.49956 23.4752C2.73594 23.8269 2.98948 24.1417 3.32197 24.3968C4.09347 24.9888 5.06855 25.2501 6.03269 25.1232C6.5346 25.0571 6.9877 24.8561 7.46171 24.6056C7.84281 24.4041 8.26276 24.4127 8.58358 24.5979C8.9044 24.7831 9.12179 25.1425 9.1379 25.5733C9.15794 26.1091 9.21041 26.602 9.40414 27.0697C9.77628 27.9681 10.4901 28.6819 11.3885 29.0541C11.7757 29.2144 12.1751 29.2766 12.5979 29.3055C13.004 29.3332 13.4987 29.3332 14.0914 29.3332H14.1587C14.7513 29.3332 15.246 29.3332 15.6522 29.3055C16.075 29.2766 16.4743 29.2144 16.8615 29.0541C17.76 28.6819 18.4738 27.9681 18.8459 27.0697C19.0397 26.6019 19.0921 26.109 19.1122 25.5732C19.1283 25.1425 19.3456 24.7831 19.6664 24.5979C19.9872 24.4126 20.4072 24.4041 20.7883 24.6055C21.2622 24.856 21.7153 25.057 22.2172 25.1231C23.1814 25.25 24.1565 24.9887 24.928 24.3967C25.2604 24.1416 25.514 23.8268 25.7504 23.4751C25.9774 23.1373 26.2248 22.7088 26.521 22.1957L26.5547 22.1373C26.851 21.6241 27.0985 21.1956 27.2775 20.83C27.4639 20.4494 27.6098 20.0725 27.6645 19.657C27.7914 18.6928 27.5301 17.7178 26.9381 16.9463C26.63 16.5446 26.2293 16.2527 25.7754 15.9675C25.4104 15.7382 25.2079 15.3702 25.2079 14.9998C25.2079 14.6294 25.4104 14.2615 25.7754 14.0322C26.2294 13.7469 26.6301 13.455 26.9383 13.0533C27.5303 12.2818 27.7915 11.3068 27.6646 10.3426C27.6099 9.92711 27.4641 9.55015 27.2777 9.16957C27.0986 8.80401 26.8512 8.37561 26.555 7.86244L26.5213 7.80407C26.225 7.29084 25.9776 6.86235 25.7505 6.52447C25.5141 6.17273 25.2606 5.85797 24.9281 5.60284C24.1566 5.01084 23.1815 4.74957 22.2174 4.87651C21.7155 4.94258 21.2624 5.1436 20.7883 5.39412C20.4072 5.59555 19.9873 5.58699 19.6665 5.40176C19.3457 5.21654 19.1283 4.85714 19.1122 4.42638C19.0921 3.89061 19.0397 3.39771 18.8459 2.93C18.4738 2.03156 17.76 1.31776 16.8615 0.945613C16.4743 0.785236 16.075 0.723045 15.6522 0.694198C15.246 0.666486 14.7513 0.666494 14.1587 0.666504H14.0914ZM12.1539 2.79337C12.2568 2.75076 12.413 2.71146 12.734 2.68956C13.064 2.66705 13.4901 2.6665 14.125 2.6665C14.76 2.6665 15.1861 2.66705 15.516 2.68956C15.837 2.71146 15.9933 2.75076 16.0962 2.79337C16.5045 2.96253 16.829 3.28699 16.9982 3.69537C17.0515 3.82418 17.0958 4.025 17.1136 4.50113C17.1531 5.55763 17.6984 6.57489 18.6665 7.13381C19.6346 7.69274 20.7882 7.65637 21.7229 7.16234C22.1442 6.9397 22.3402 6.8776 22.4784 6.8594C22.9167 6.8017 23.3599 6.92046 23.7106 7.18955C23.7989 7.25733 23.9111 7.37303 24.0905 7.64005C24.275 7.91454 24.4885 8.2833 24.806 8.83317C25.1235 9.38304 25.3361 9.75235 25.4816 10.0493C25.6231 10.3383 25.6672 10.4933 25.6817 10.6037C25.7394 11.0419 25.6206 11.4851 25.3516 11.8358C25.2667 11.9464 25.1149 12.0852 24.7113 12.3387C23.8162 12.9011 23.2079 13.8819 23.2079 14.9997C23.2078 16.1175 23.8161 17.0985 24.7113 17.661C25.1148 17.9144 25.2665 18.0532 25.3514 18.1638C25.6205 18.5145 25.7393 18.9577 25.6816 19.3959C25.667 19.5063 25.6229 19.6613 25.4814 19.9502C25.3359 20.2472 25.1234 20.6165 24.8059 21.1664C24.4884 21.7163 24.2749 22.085 24.0904 22.3595C23.911 22.6266 23.7988 22.7423 23.7104 22.81C23.3598 23.0791 22.9165 23.1979 22.4783 23.1402C22.3401 23.122 22.144 23.0599 21.7228 22.8373C20.7881 22.3432 19.6344 22.3069 18.6663 22.8659C17.6983 23.4248 17.1531 24.442 17.1136 25.4984C17.0958 25.9746 17.0515 26.1755 16.9982 26.3043C16.829 26.7127 16.5045 27.0371 16.0962 27.2063C15.9933 27.2489 15.837 27.2882 15.516 27.3101C15.1861 27.3326 14.76 27.3332 14.125 27.3332C13.4901 27.3332 13.064 27.3326 12.734 27.3101C12.413 27.2882 12.2568 27.2489 12.1539 27.2063C11.7455 27.0371 11.4211 26.7127 11.2519 26.3043C11.1985 26.1755 11.1543 25.9747 11.1365 25.4985C11.097 24.442 10.5517 23.4248 9.58357 22.8659C8.61549 22.3069 7.46186 22.3433 6.52715 22.8373C6.10591 23.06 5.90988 23.1221 5.77164 23.1403C5.33339 23.198 4.89017 23.0792 4.53949 22.8101C4.45115 22.7423 4.33897 22.6266 4.15952 22.3596C3.97505 22.0851 3.76152 21.7164 3.44405 21.1665C3.12658 20.6166 2.91399 20.2473 2.76851 19.9503C2.62699 19.6614 2.58288 19.5064 2.56835 19.396C2.51065 18.9578 2.62941 18.5146 2.8985 18.1639C2.98339 18.0532 3.13519 17.9145 3.53864 17.661C4.43382 17.0986 5.04213 16.1177 5.04219 14.9999C5.04225 13.882 4.43391 12.901 3.53866 12.3385C3.13529 12.085 2.98351 11.9463 2.89863 11.8357C2.62954 11.485 2.51078 11.0418 2.56848 10.6036C2.58301 10.4932 2.62712 10.3382 2.76864 10.0493C2.91412 9.75226 3.12671 9.38295 3.44418 8.83308C3.76165 8.28321 3.97518 7.91445 4.15965 7.63996C4.3391 7.37294 4.45128 7.25724 4.53962 7.18946C4.8903 6.92037 5.33352 6.80161 5.77177 6.8593C5.91002 6.87751 6.10606 6.93961 6.52735 7.16229C7.46202 7.6563 8.61559 7.69266 9.58363 7.13377C10.5517 6.57488 11.097 5.55766 11.1365 4.50119C11.1543 4.02502 11.1985 3.82419 11.2519 3.69537C11.4211 3.28699 11.7455 2.96253 12.1539 2.79337Z" fill="#999999"/>
</svg>
