<svg width="20" height="20" viewBox="0 0 20 20" fill="none" xmlns="http://www.w3.org/2000/svg">
<path fill-rule="evenodd" clip-rule="evenodd" d="M8.2864 4.37532H11.7138C13.2452 4.37531 14.4583 4.3753 15.4076 4.50294C16.3846 4.63429 17.1754 4.91106 17.799 5.53469C18.4227 6.15833 18.6994 6.94912 18.8308 7.92614C18.9584 8.87549 18.9584 10.0885 18.9584 11.62V11.714C18.9584 13.2455 18.9584 14.4585 18.8308 15.4078C18.6994 16.3849 18.4227 17.1757 17.799 17.7993C17.1754 18.4229 16.3846 18.6997 15.4076 18.831C14.4583 18.9587 13.2452 18.9587 11.7138 18.9587H8.28641C6.75494 18.9587 5.54191 18.9587 4.59256 18.831C3.61554 18.6997 2.82475 18.4229 2.20112 17.7993C1.57748 17.1757 1.30072 16.3849 1.16936 15.4078C1.04172 14.4585 1.04174 13.2455 1.04175 11.714V11.62C1.04174 10.0885 1.04172 8.87548 1.16936 7.92614C1.30072 6.94912 1.57748 6.15833 2.20112 5.53469C2.82475 4.91106 3.61554 4.63429 4.59256 4.50294C5.54191 4.3753 6.75493 4.37531 8.2864 4.37532ZM4.75912 5.74179C3.92071 5.85451 3.43768 6.0659 3.085 6.41858C2.92468 6.5789 2.79356 6.76616 2.68762 7.0015C4.21017 7.98995 5.21059 8.62762 6.05297 9.04847C6.10835 8.75997 6.36209 8.54199 6.66675 8.54199C7.01193 8.54199 7.29175 8.82181 7.29175 9.16699V9.54858C9.05795 10.0816 10.9422 10.0816 12.7084 9.54862V9.16699C12.7084 8.82181 12.9882 8.54199 13.3334 8.54199C13.6381 8.54199 13.8918 8.76 13.9472 9.04853C14.7896 8.62769 15.79 7.99003 17.3126 7.00156C17.2066 6.76619 17.0755 6.57891 16.9152 6.41858C16.5625 6.0659 16.0794 5.85451 15.241 5.74179C14.3847 5.62665 13.2558 5.62533 11.6667 5.62533H8.33342C6.7444 5.62533 5.61551 5.62665 4.75912 5.74179ZM17.6165 8.29459C16.044 9.31356 14.9655 9.98788 13.9584 10.4208V10.8337C13.9584 11.1788 13.6786 11.4587 13.3334 11.4587C12.9928 11.4587 12.7158 11.1862 12.7086 10.8473C10.9333 11.3153 9.06683 11.3153 7.2916 10.8473C7.28435 11.1862 7.00737 11.4587 6.66675 11.4587C6.32157 11.4587 6.04175 11.1788 6.04175 10.8337V10.4207C5.03466 9.98781 3.95621 9.31348 2.38369 8.29451C2.29288 9.12484 2.29175 10.1998 2.29175 11.667C2.29175 13.256 2.29308 14.3849 2.40821 15.2413C2.52094 16.0797 2.73233 16.5627 3.085 16.9154C3.43768 17.2681 3.92071 17.4795 4.75912 17.5922C5.61551 17.7073 6.7444 17.7087 8.33341 17.7087H11.6667C13.2558 17.7087 14.3847 17.7073 15.241 17.5922C16.0794 17.4795 16.5625 17.2681 16.9152 16.9154C17.2678 16.5627 17.4792 16.0797 17.5919 15.2413C17.7071 14.3849 17.7084 13.256 17.7084 11.667C17.7084 10.1998 17.7073 9.12491 17.6165 8.29459Z" fill="black"/>
<path fill-rule="evenodd" clip-rule="evenodd" d="M10 2.29199C9.18463 2.29199 8.48926 2.81285 8.23157 3.54194C8.11654 3.86739 7.75946 4.03796 7.43402 3.92293C7.10857 3.8079 6.93799 3.45083 7.05302 3.12538C7.48172 1.91248 8.63842 1.04199 10 1.04199C11.3617 1.04199 12.5184 1.91248 12.9471 3.12538C13.0621 3.45083 12.8915 3.8079 12.5661 3.92293C12.2406 4.03796 11.8835 3.86739 11.7685 3.54194C11.5108 2.81285 10.8154 2.29199 10 2.29199Z" fill="black"/>
</svg>
