<svg width="18" height="22" viewBox="0 0 18 22" fill="none" xmlns="http://www.w3.org/2000/svg">
<path fill-rule="evenodd" clip-rule="evenodd" d="M6.94507 0.250001H11.0548C12.4224 0.24998 13.5247 0.249963 14.3917 0.366524C15.2918 0.48754 16.0497 0.746434 16.6516 1.34835C17.2535 1.95027 17.5124 2.70814 17.6334 3.60825C17.75 4.47522 17.75 5.57754 17.7499 6.94513V15.0549C17.75 16.4225 17.75 17.5248 17.6334 18.3918C17.5124 19.2919 17.2535 20.0497 16.6516 20.6517C16.0497 21.2536 15.2918 21.5125 14.3917 21.6335C13.5247 21.75 12.4224 21.75 11.0548 21.75H6.94507C5.57748 21.75 4.47516 21.75 3.60819 21.6335C2.70808 21.5125 1.95021 21.2536 1.34829 20.6517C0.746375 20.0497 0.487481 19.2919 0.366465 18.3918C0.327769 18.1039 0.301921 17.7902 0.284656 17.4494C0.245576 17.326 0.237965 17.1912 0.268701 17.0568C0.24992 16.4649 0.24993 15.7991 0.249942 15.0549V6.94513C0.249921 5.57754 0.249904 4.47522 0.366465 3.60825C0.487481 2.70814 0.746375 1.95027 1.34829 1.34835C1.95021 0.746434 2.70808 0.48754 3.60819 0.366524C4.47516 0.249963 5.57748 0.24998 6.94507 0.250001ZM1.7767 17.2491C1.7919 17.6029 1.81573 17.914 1.85309 18.1919C1.95174 18.9257 2.13219 19.3142 2.40895 19.591C2.68571 19.8678 3.07429 20.0482 3.80806 20.1469C4.56341 20.2484 5.56453 20.25 6.99994 20.25H10.9999C12.4354 20.25 13.4365 20.2484 14.1918 20.1469C14.9256 20.0482 15.3142 19.8678 15.5909 19.591C15.7872 19.3947 15.9351 19.1421 16.0397 18.75H4.99994C4.58573 18.75 4.24994 18.4142 4.24994 18C4.24994 17.5858 4.58573 17.25 4.99994 17.25H16.2231C16.2417 16.819 16.2474 16.3246 16.2492 15.75H4.89772C3.91946 15.75 3.57746 15.7564 3.31538 15.8267C2.59606 16.0194 2.02262 16.5541 1.7767 17.2491ZM16.2499 14.25H4.89772C4.85855 14.25 4.81995 14.25 4.78192 14.25C3.96396 14.2497 3.40581 14.2495 2.92715 14.3778C2.49917 14.4925 2.10218 14.6798 1.74994 14.9259V7C1.74994 5.56458 1.75153 4.56347 1.85309 3.80812C1.95174 3.07435 2.13219 2.68577 2.40895 2.40901C2.68571 2.13225 3.07429 1.9518 3.80806 1.85315C4.56341 1.75159 5.56453 1.75 6.99994 1.75H10.9999C12.4354 1.75 13.4365 1.75159 14.1918 1.85315C14.9256 1.9518 15.3142 2.13225 15.5909 2.40901C15.8677 2.68577 16.0481 3.07435 16.1468 3.80812C16.2483 4.56347 16.2499 5.56458 16.2499 7V14.25ZM4.24994 6C4.24994 5.58579 4.58573 5.25 4.99994 5.25H12.9999C13.4142 5.25 13.7499 5.58579 13.7499 6C13.7499 6.41421 13.4142 6.75 12.9999 6.75H4.99994C4.58573 6.75 4.24994 6.41421 4.24994 6ZM4.24994 9.5C4.24994 9.08579 4.58573 8.75 4.99994 8.75H9.99994C10.4142 8.75 10.7499 9.08579 10.7499 9.5C10.7499 9.91421 10.4142 10.25 9.99994 10.25H4.99994C4.58573 10.25 4.24994 9.91421 4.24994 9.5Z" fill="white"/>
</svg>
