<svg width="22" height="30" viewBox="0 0 22 30" fill="none" xmlns="http://www.w3.org/2000/svg">
<path fill-rule="evenodd" clip-rule="evenodd" d="M10.7918 0.666993H10.9582C13.6432 0.666971 15.7622 0.666954 17.3056 0.87045C18.8226 1.07047 20.1857 1.51124 20.833 2.76814C20.9263 2.94922 21.005 3.1374 21.0684 3.33093C21.5101 4.67889 20.8565 5.95215 19.9255 7.15724C18.9788 8.38277 17.4798 9.86714 15.582 11.7464L12.2962 15.0003L15.5821 18.2542C17.4798 20.1335 18.9788 21.6179 19.9255 22.8434C20.8565 24.0485 21.5101 25.3218 21.0684 26.6697C21.005 26.8632 20.9263 27.0514 20.833 27.2325C20.1857 28.4894 18.8226 28.9302 17.3056 29.1302C15.7622 29.3337 13.6432 29.3337 10.9582 29.3337H10.7918C8.10682 29.3337 5.9878 29.3337 4.44438 29.1302C2.92737 28.9302 1.56433 28.4894 0.916987 27.2325C0.823721 27.0514 0.745 26.8632 0.681588 26.6697C0.239904 25.3218 0.89353 24.0485 1.82449 22.8434C2.77123 21.6179 4.27019 20.1335 6.16796 18.2542L9.45383 15.0003L6.16797 11.7464C4.2702 9.86714 2.77123 8.38277 1.82449 7.15724C0.89353 5.95215 0.239903 4.6789 0.681588 3.33093C0.745 3.13741 0.823721 2.94922 0.916987 2.76814C1.56433 1.51124 2.92737 1.07047 4.44438 0.87045C5.9878 0.666954 8.10681 0.666971 10.7918 0.666993ZM10.875 13.593L14.115 10.3845C16.0855 8.43313 17.4875 7.04172 18.3428 5.93456C19.2238 4.79412 19.2716 4.27036 19.1679 3.95369C19.1375 3.86103 19.0998 3.77082 19.055 3.68388C18.8994 3.38176 18.4833 3.04303 17.0442 2.85329C15.6474 2.66913 13.6613 2.66699 10.875 2.66699C8.08875 2.66699 6.10257 2.66913 4.70581 2.85329C3.26673 3.04303 2.85062 3.38176 2.69502 3.68388C2.65025 3.77082 2.61252 3.86103 2.58216 3.95369C2.4784 4.27036 2.52621 4.79412 3.40722 5.93456C4.26252 7.04173 5.66449 8.43313 7.63505 10.3845L10.875 13.593ZM10.875 16.4077L7.63505 19.6161C5.66448 21.5675 4.26252 22.9589 3.40722 24.0661C2.52621 25.2065 2.4784 25.7303 2.58216 26.047C2.61252 26.1396 2.65025 26.2298 2.69502 26.3168C2.85062 26.6189 3.26674 26.9576 4.70581 27.1474C6.10257 27.3315 8.08875 27.3337 10.875 27.3337C13.6613 27.3337 15.6474 27.3315 17.0442 27.1474C18.4833 26.9576 18.8994 26.6189 19.055 26.3168C19.0998 26.2298 19.1375 26.1396 19.1678 26.047C19.2716 25.7303 19.2238 25.2065 18.3428 24.0661C17.4875 22.9589 16.0855 21.5675 14.115 19.6161L10.875 16.4077ZM7.20834 6.33366C7.20834 5.78137 7.65605 5.33366 8.20834 5.33366H13.5417C14.094 5.33366 14.5417 5.78137 14.5417 6.33366C14.5417 6.88594 14.094 7.33366 13.5417 7.33366H8.20834C7.65605 7.33366 7.20834 6.88594 7.20834 6.33366ZM7.20834 23.667C7.20834 23.1147 7.65605 22.667 8.20834 22.667H13.5417C14.094 22.667 14.5417 23.1147 14.5417 23.667C14.5417 24.2193 14.094 24.667 13.5417 24.667H8.20834C7.65605 24.667 7.20834 24.2193 7.20834 23.667Z" fill="#999999"/>
</svg>
