<svg width="32" height="32" viewBox="0 0 32 32" fill="none" xmlns="http://www.w3.org/2000/svg">
<path fill-rule="evenodd" clip-rule="evenodd" d="M6.82232 10.3356C7.37338 10.2989 7.84989 10.7158 7.88662 11.2669L8.49988 20.4657C8.61969 22.2628 8.70506 23.5132 8.89248 24.4541C9.07428 25.3667 9.32806 25.8497 9.69261 26.1908C10.0572 26.5318 10.556 26.7529 11.4787 26.8736C12.4299 26.998 13.6833 27.0001 15.4844 27.0001H16.5155C18.3166 27.0001 19.57 26.998 20.5212 26.8736C21.4439 26.7529 21.9427 26.5318 22.3073 26.1908C22.6718 25.8497 22.9256 25.3667 23.1074 24.4541C23.2948 23.5133 23.3802 22.2628 23.5 20.4657L24.1133 11.2669C24.15 10.7158 24.6265 10.2989 25.1776 10.3356C25.7286 10.3723 26.1456 10.8488 26.1088 11.3999L25.4909 20.6689C25.3769 22.3792 25.2848 23.7607 25.0689 24.8448C24.8443 25.9719 24.4625 26.9133 23.6737 27.6513C22.8849 28.3892 21.9201 28.7077 20.7806 28.8567C19.6845 29.0001 18.3 29.0001 16.5858 29.0001H15.4141C13.6999 29.0001 12.3154 29.0001 11.2193 28.8567C10.0798 28.7077 9.11504 28.3892 8.32624 27.6513C7.53745 26.9133 7.15555 25.9719 6.93102 24.8448C6.71506 23.7607 6.62298 22.3792 6.50898 20.6689L5.89105 11.3999C5.85432 10.8488 6.27126 10.3723 6.82232 10.3356Z" fill="black"/>
<path fill-rule="evenodd" clip-rule="evenodd" d="M13.807 3.00005L13.7457 3.00003C13.4571 2.99984 13.2058 2.99968 12.9684 3.03758C12.0307 3.18732 11.2192 3.7722 10.7806 4.61445C10.6696 4.82765 10.5903 5.06618 10.4992 5.33995L10.4798 5.39811L10.3504 5.78646C10.3251 5.86241 10.318 5.88335 10.3119 5.90032C10.0784 6.54581 9.47302 6.98213 8.78681 6.99952C8.76877 6.99997 8.74668 7.00005 8.66662 7.00005H4.6665C4.11422 7.00005 3.6665 7.44777 3.6665 8.00005C3.6665 8.55234 4.11422 9.00005 4.6665 9.00005L8.67803 9.00005L8.70035 9.00005H23.2995L23.3219 9.00005L27.3333 9.00005C27.8856 9.00005 28.3333 8.55234 28.3333 8.00005C28.3333 7.44777 27.8856 7.00005 27.3333 7.00005H23.3333C23.2532 7.00005 23.2311 6.99997 23.2131 6.99952C22.5269 6.98213 21.9215 6.54578 21.688 5.90029C21.6819 5.88344 21.6747 5.86204 21.6495 5.78646L21.5201 5.39811L21.5007 5.33992C21.4096 5.06615 21.3303 4.82764 21.2193 4.61445C20.7807 3.7722 19.9692 3.18732 19.0315 3.03758C18.7941 2.99968 18.5428 2.99984 18.2542 3.00003L18.1929 3.00005H13.807ZM12.1926 6.58064C12.1402 6.72539 12.0794 6.86535 12.0107 7.00005H19.9892C19.9205 6.86536 19.8597 6.72541 19.8073 6.58067L19.7557 6.42954L19.6227 6.03057C19.5011 5.66587 19.4731 5.59151 19.4454 5.53818C19.2992 5.25743 19.0287 5.06248 18.7161 5.01256C18.6567 5.00308 18.5774 5.00005 18.1929 5.00005H13.807C13.4225 5.00005 13.3431 5.00308 13.2838 5.01256C12.9712 5.06248 12.7007 5.25743 12.5545 5.53819C12.5268 5.5915 12.4988 5.66589 12.3772 6.03057L12.2441 6.42978C12.2241 6.4899 12.2085 6.53669 12.1926 6.58064Z" fill="black"/>
</svg>
