<svg width="49" height="48" viewBox="0 0 49 48" fill="none" xmlns="http://www.w3.org/2000/svg">
<rect x="0.5" width="48" height="48" rx="24" fill="#1284EF"/>
<path fill-rule="evenodd" clip-rule="evenodd" d="M29.5 23.75C29.9142 23.75 30.25 23.4142 30.25 23V15.8107L31.9697 17.5303C32.2626 17.8232 32.7374 17.8232 33.0303 17.5303C33.3232 17.2374 33.3232 16.7626 33.0303 16.4697L30.0303 13.4697C29.7374 13.1768 29.2626 13.1768 28.9697 13.4697L25.9697 16.4697C25.6768 16.7626 25.6768 17.2374 25.9697 17.5303C26.2626 17.8232 26.7374 17.8232 27.0303 17.5303L28.75 15.8107V23C28.75 23.4142 29.0858 23.75 29.5 23.75Z" fill="white"/>
<path fill-rule="evenodd" clip-rule="evenodd" d="M24.5 13.25L24.4426 13.25C22.1342 13.25 20.3252 13.25 18.9137 13.4397C17.469 13.634 16.3289 14.0393 15.4341 14.9341C14.5393 15.8289 14.134 16.969 13.9397 18.4137C13.75 19.8252 13.75 21.6342 13.75 23.9426V24.0574C13.75 26.3658 13.75 28.1748 13.9397 29.5863C14.134 31.031 14.5393 32.1711 15.4341 33.0659C16.3289 33.9607 17.469 34.366 18.9137 34.5603C20.3252 34.75 22.1342 34.75 24.4426 34.75H24.5574C26.8658 34.75 28.6748 34.75 30.0863 34.5603C31.531 34.366 32.6711 33.9607 33.5659 33.0659C34.4607 32.1711 34.866 31.031 35.0603 29.5863C35.25 28.1748 35.25 26.3658 35.25 24.0574V24C35.25 23.5858 34.9142 23.25 34.5 23.25C34.0858 23.25 33.75 23.5858 33.75 24C33.75 26.3782 33.7484 28.0864 33.5736 29.3864C33.5667 29.4377 33.5596 29.4882 33.5522 29.5378L30.7782 27.0412C29.4788 25.8718 27.5437 25.7553 26.1134 26.7605L25.8152 26.9701C25.3182 27.3193 24.6421 27.2608 24.2125 26.8313L19.9228 22.5415C18.7874 21.4061 16.9661 21.3455 15.7577 22.4028L15.251 22.8462C15.2555 21.0539 15.2812 19.693 15.4264 18.6136C15.5982 17.3352 15.9251 16.5645 16.4948 15.9948C17.0645 15.4251 17.8352 15.0982 19.1136 14.9264C20.4136 14.7516 22.1218 14.75 24.5 14.75C24.9142 14.75 25.25 14.4142 25.25 14C25.25 13.5858 24.9142 13.25 24.5 13.25ZM15.4264 29.3864C15.5982 30.6648 15.9251 31.4355 16.4948 32.0052C17.0645 32.5749 17.8352 32.9018 19.1136 33.0736C20.4136 33.2484 22.1218 33.25 24.5 33.25C26.8782 33.25 28.5864 33.2484 29.8864 33.0736C31.1648 32.9018 31.9355 32.5749 32.5052 32.0052C32.7487 31.7617 32.9479 31.4814 33.1096 31.1404C33.0707 31.1166 33.0334 31.089 32.9983 31.0574L29.7747 28.1562C28.9951 27.4545 27.834 27.3846 26.9758 27.9877L26.6776 28.1973C25.5843 28.9657 24.0968 28.8369 23.1519 27.8919L18.8622 23.6022C18.2851 23.0252 17.3596 22.9944 16.7455 23.5317L15.2504 24.8399C15.253 26.7884 15.2729 28.2448 15.4264 29.3864Z" fill="white"/>
</svg>
