<svg width="73" height="72" viewBox="0 0 73 72" fill="none" xmlns="http://www.w3.org/2000/svg">
<path fill-rule="evenodd" clip-rule="evenodd" d="M36.5 3.75C28.63 3.75 22.25 10.1299 22.25 18C22.25 25.8701 28.63 32.25 36.5 32.25C44.3701 32.25 50.75 25.8701 50.75 18C50.75 10.1299 44.3701 3.75 36.5 3.75ZM26.75 18C26.75 12.6152 31.1153 8.25 36.5 8.25C41.8848 8.25 46.25 12.6152 46.25 18C46.25 23.3848 41.8848 27.75 36.5 27.75C31.1153 27.75 26.75 23.3848 26.75 18Z" fill="#999999"/>
<path fill-rule="evenodd" clip-rule="evenodd" d="M8.68286 17.4543C8.38148 16.2488 7.15988 15.5158 5.95434 15.8172C4.7488 16.1186 4.01584 17.3402 4.31722 18.5457L5.46312 23.1293C7.5774 31.5864 13.9876 38.2488 22.25 40.7362L22.25 54.156C22.25 56.8514 22.2499 59.0991 22.4898 60.8834C22.743 62.7668 23.3 64.4672 24.6664 65.8336C26.0328 67.2 27.7332 67.757 29.6166 68.0103C31.401 68.2502 33.6486 68.2501 36.3441 68.25H36.656C39.3515 68.2501 41.5991 68.2502 43.3835 68.0103C45.2669 67.757 46.9673 67.2 48.3337 65.8336C49.7001 64.4672 50.2571 62.7668 50.5103 60.8834C50.7502 59.0991 50.7501 56.8515 50.75 54.1561L50.75 41.5771C53.6934 42.4545 55.9418 45.0118 56.317 48.2012L58.2654 64.7629C58.4106 65.997 59.5288 66.8798 60.7629 66.7346C61.997 66.5894 62.8798 65.4712 62.7346 64.2371L60.7862 47.6755C60.0532 41.4453 54.7732 36.75 48.5 36.75H24.7536C17.4233 35.0293 11.6582 29.3557 9.82876 22.0379L8.68286 17.4543ZM26.75 54V41.25H46.25V54C46.25 56.892 46.2453 58.8347 46.0504 60.2838C45.8643 61.6682 45.5426 62.2607 45.1517 62.6517C44.7607 63.0426 44.1682 63.3643 42.7839 63.5504C41.3348 63.7452 39.3921 63.75 36.5 63.75C33.608 63.75 31.6653 63.7452 30.2162 63.5504C28.8318 63.3643 28.2393 63.0426 27.8484 62.6517C27.4574 62.2607 27.1358 61.6682 26.9496 60.2838C26.7548 58.8347 26.75 56.892 26.75 54Z" fill="#999999"/>
</svg>
