<svg width="32" height="32" viewBox="0 0 32 32" fill="none" xmlns="http://www.w3.org/2000/svg">
<path fill-rule="evenodd" clip-rule="evenodd" d="M7.00002 8.00033C7.00002 4.50252 9.83555 1.66699 13.3333 1.66699C16.8312 1.66699 19.6667 4.50252 19.6667 8.00033C19.6667 11.4981 16.8312 14.3337 13.3333 14.3337C9.83555 14.3337 7.00002 11.4981 7.00002 8.00033ZM13.3333 3.66699C10.9401 3.66699 9.00002 5.60709 9.00002 8.00033C9.00002 10.3936 10.9401 12.3337 13.3333 12.3337C15.7266 12.3337 17.6667 10.3936 17.6667 8.00033C17.6667 5.60709 15.7266 3.66699 13.3333 3.66699Z" fill="black"/>
<path fill-rule="evenodd" clip-rule="evenodd" d="M5.30062 18.2194C7.40658 17.0348 10.2486 16.3337 13.3334 16.3337C16.4181 16.3337 19.2601 17.0348 21.3661 18.2194C23.4407 19.3864 25 21.1551 25 23.3337L25.0001 23.4696C25.0016 25.0187 25.0035 26.963 23.2981 28.3517C22.4588 29.0352 21.2847 29.5212 19.6984 29.8423C18.1077 30.1643 16.0344 30.3337 13.3334 30.3337C10.6323 30.3337 8.55903 30.1643 6.9683 29.8423C5.38199 29.5212 4.20786 29.0352 3.36856 28.3517C1.6632 26.963 1.66509 25.0187 1.66659 23.4696L1.66668 23.3337C1.66668 21.1551 3.22599 19.3864 5.30062 18.2194ZM6.28114 19.9626C4.49519 20.9672 3.66668 22.1985 3.66668 23.3337C3.66668 25.0774 3.72044 26.059 4.63147 26.8009C5.12551 27.2032 5.95138 27.5959 7.36507 27.882C8.77433 28.1673 10.701 28.3337 13.3334 28.3337C15.9657 28.3337 17.8924 28.1673 19.3016 27.882C20.7153 27.5959 21.5412 27.2032 22.0352 26.8009C22.9463 26.059 23 25.0774 23 23.3337C23 22.1985 22.1715 20.9672 20.3856 19.9626C18.631 18.9756 16.1397 18.3337 13.3334 18.3337C10.527 18.3337 8.03575 18.9756 6.28114 19.9626Z" fill="black"/>
<path fill-rule="evenodd" clip-rule="evenodd" d="M22.2537 9.92957C23.2146 9.50435 24.3305 9.58496 25.3334 10.2388C26.3362 9.58496 27.4521 9.50435 28.413 9.92957C29.5531 10.4341 30.3333 11.5994 30.3333 12.9333C30.3333 14.1978 29.7811 15.1497 29.1193 15.8711C28.6028 16.4342 27.9639 16.9097 27.4593 17.2852C27.351 17.3658 27.2488 17.4419 27.1554 17.5132L27.1527 17.5152C26.9544 17.6665 26.698 17.8623 26.4277 18.0152C26.1557 18.169 25.7792 18.3337 25.3333 18.3337C24.8875 18.3337 24.511 18.169 24.239 18.0152C23.9687 17.8623 23.7123 17.6666 23.514 17.5152L23.5113 17.5132C23.418 17.4419 23.3159 17.3659 23.2076 17.2853C22.7031 16.9098 22.0639 16.4342 21.5474 15.8711C20.8856 15.1497 20.3334 14.1978 20.3334 12.9333C20.3334 11.5994 21.1136 10.4341 22.2537 9.92957ZM22.3334 12.9333C22.3334 12.384 22.6531 11.9399 23.0631 11.7585C23.418 11.6014 23.9832 11.5853 24.6242 12.2301C24.8119 12.4189 25.0671 12.525 25.3333 12.525C25.5996 12.525 25.8548 12.4189 26.0425 12.2301C26.6835 11.5853 27.2487 11.6014 27.6036 11.7585C28.0136 11.9399 28.3333 12.384 28.3333 12.9333C28.3333 13.552 28.0818 14.0435 27.6454 14.5192C27.2694 14.9291 26.8209 15.2643 26.3251 15.6349C26.2002 15.7282 26.0724 15.8238 25.942 15.9233C25.7253 16.0887 25.5751 16.1996 25.4429 16.2745C25.3894 16.3047 25.3538 16.3201 25.3333 16.3278C25.3129 16.3201 25.2773 16.3047 25.2238 16.2745C25.0916 16.1996 24.9414 16.0887 24.7247 15.9233C24.5943 15.8238 24.4665 15.7283 24.3417 15.635C23.8459 15.2644 23.3973 14.9291 23.0213 14.5192C22.5849 14.0435 22.3334 13.552 22.3334 12.9333Z" fill="black"/>
</svg>
